<svg xmlns="http://www.w3.org/2000/svg" xmlns:xlink="http://www.w3.org/1999/xlink" width="500" zoomAndPan="magnify" viewBox="0 0 375 374.999991" height="500" preserveAspectRatio="xMidYMid meet" version="1.2"><defs><clipPath id="632361dc2a"><path d="M 112.5 115 L 168 115 L 168 171 L 112.5 171 Z M 112.5 115 "/></clipPath><clipPath id="7e81ccdd86"><path d="M 112.5 177 L 226 177 L 226 259.851562 L 112.5 259.851562 Z M 112.5 177 "/></clipPath></defs><g id="e6effa51e6"><path style=" stroke:none;fill-rule:nonzero;fill:#040606;fill-opacity:1;" d="M 246.738281 171.339844 C 246.738281 174.019531 244.539062 176.21875 241.871094 176.21875 L 200.945312 176.21875 C 198.273438 176.21875 196.078125 174.019531 196.078125 171.339844 L 196.078125 130.3125 C 196.078125 127.632812 198.273438 125.433594 200.945312 125.433594 L 233.246094 125.433594 C 237.796875 121.824219 242.34375 118.683594 246.894531 116.324219 C 245.320312 115.6875 243.601562 115.367188 241.871094 115.367188 L 200.945312 115.367188 C 192.785156 115.367188 186.039062 121.972656 186.039062 130.3125 L 186.039062 171.339844 C 186.039062 179.523438 192.625 186.269531 200.945312 186.269531 L 241.871094 186.285156 C 250.03125 186.285156 256.761719 179.679688 256.761719 171.339844 L 256.761719 139.898438 C 253.007812 143.519531 249.710938 147.125 246.738281 151.066406 L 246.738281 171.339844 "/><path style=" stroke:none;fill-rule:nonzero;fill:#040606;fill-opacity:1;" d="M 258.335938 120.566406 C 247.835938 124.027344 234.660156 133.136719 222.425781 148.863281 L 215.21875 140.839844 C 214.121094 139.582031 212.070312 139.582031 210.984375 140.839844 L 205.65625 146.820312 C 204.542969 147.921875 204.703125 149.804688 205.800781 150.746094 L 222.265625 166.472656 C 223.683594 167.734375 225.878906 167.414062 226.816406 165.835938 C 235.441406 149.964844 244.859375 138.175781 260.691406 124.648438 C 262.570312 122.925781 260.835938 119.769531 258.335938 120.566406 "/><g clip-rule="nonzero" clip-path="url(#632361dc2a)"><path style=" stroke:none;fill-rule:nonzero;fill:#040606;fill-opacity:1;" d="M 167.695312 142.882812 C 167.695312 158.078125 155.40625 170.398438 140.261719 170.398438 C 125.105469 170.398438 112.816406 158.078125 112.816406 142.882812 C 112.816406 127.699219 125.105469 115.382812 140.261719 115.382812 C 155.40625 115.382812 167.695312 127.699219 167.695312 142.882812 "/></g><g clip-rule="nonzero" clip-path="url(#7e81ccdd86)"><path style=" stroke:none;fill-rule:nonzero;fill:#040606;fill-opacity:1;" d="M 212.546875 201.839844 L 187.773438 201.839844 C 187.773438 201.839844 164.097656 182.824219 162.058594 181.085938 C 159.851562 179.523438 156.09375 177.785156 152.019531 177.785156 L 128.027344 177.785156 C 119.402344 177.785156 112.5 184.707031 112.5 193.351562 L 112.5 253.726562 C 112.5 257.1875 115.316406 259.851562 118.769531 259.851562 L 161.582031 259.851562 C 165.035156 259.851562 167.851562 257.027344 167.851562 253.566406 L 167.695312 217.40625 L 175.695312 223.851562 C 177.890625 225.589844 180.710938 226.53125 183.539062 226.53125 L 212.386719 226.53125 C 218.972656 226.53125 224.78125 221.492188 225.242188 214.886719 C 225.402344 207.980469 219.753906 201.839844 212.546875 201.839844 "/></g><g style="fill:#000000;fill-opacity:1;"><g transform="translate(124.873897, 286.158819)"><path style="stroke:none" d="M 6.25 0.171875 C 5.195312 0.171875 4.269531 -0.046875 3.46875 -0.484375 C 2.664062 -0.929688 2.035156 -1.59375 1.578125 -2.46875 C 1.128906 -3.34375 0.90625 -4.425781 0.90625 -5.71875 C 0.90625 -7 1.128906 -8.078125 1.578125 -8.953125 C 2.035156 -9.835938 2.664062 -10.5 3.46875 -10.9375 C 4.269531 -11.375 5.195312 -11.59375 6.25 -11.59375 C 7.34375 -11.59375 8.273438 -11.375 9.046875 -10.9375 C 9.816406 -10.507812 10.363281 -9.859375 10.6875 -8.984375 L 9.046875 -7.96875 L 8.84375 -7.984375 C 8.601562 -8.578125 8.269531 -9 7.84375 -9.25 C 7.425781 -9.507812 6.894531 -9.640625 6.25 -9.640625 C 5.300781 -9.640625 4.5625 -9.328125 4.03125 -8.703125 C 3.5 -8.078125 3.234375 -7.082031 3.234375 -5.71875 C 3.234375 -4.351562 3.5 -3.359375 4.03125 -2.734375 C 4.5625 -2.109375 5.300781 -1.796875 6.25 -1.796875 C 7.726562 -1.796875 8.632812 -2.515625 8.96875 -3.953125 L 9.171875 -3.953125 L 10.828125 -3.09375 C 10.515625 -2.007812 9.976562 -1.191406 9.21875 -0.640625 C 8.46875 -0.0976562 7.476562 0.171875 6.25 0.171875 Z M 6.25 0.171875 "/></g></g><g style="fill:#000000;fill-opacity:1;"><g transform="translate(136.074286, 286.158819)"><path style="stroke:none" d="M 5.015625 0.171875 C 4.171875 0.171875 3.425781 0 2.78125 -0.34375 C 2.144531 -0.695312 1.648438 -1.207031 1.296875 -1.875 C 0.953125 -2.550781 0.78125 -3.363281 0.78125 -4.3125 C 0.78125 -5.257812 0.953125 -6.066406 1.296875 -6.734375 C 1.648438 -7.410156 2.144531 -7.921875 2.78125 -8.265625 C 3.425781 -8.609375 4.171875 -8.78125 5.015625 -8.78125 C 5.859375 -8.78125 6.597656 -8.609375 7.234375 -8.265625 C 7.867188 -7.921875 8.363281 -7.410156 8.71875 -6.734375 C 9.070312 -6.066406 9.25 -5.257812 9.25 -4.3125 C 9.25 -3.363281 9.070312 -2.550781 8.71875 -1.875 C 8.363281 -1.207031 7.867188 -0.695312 7.234375 -0.34375 C 6.597656 0 5.859375 0.171875 5.015625 0.171875 Z M 5.015625 -1.671875 C 6.347656 -1.671875 7.015625 -2.550781 7.015625 -4.3125 C 7.015625 -5.21875 6.84375 -5.882812 6.5 -6.3125 C 6.15625 -6.738281 5.660156 -6.953125 5.015625 -6.953125 C 3.671875 -6.953125 3 -6.070312 3 -4.3125 C 3 -2.550781 3.671875 -1.671875 5.015625 -1.671875 Z M 5.015625 -1.671875 "/></g></g><g style="fill:#000000;fill-opacity:1;"><g transform="translate(146.087465, 286.158819)"><path style="stroke:none" d="M 1.25 0 L 1.25 -8.625 L 3.328125 -8.625 L 3.328125 -7.359375 L 3.484375 -7.3125 C 4.023438 -8.289062 4.894531 -8.78125 6.09375 -8.78125 C 7.09375 -8.78125 7.820312 -8.507812 8.28125 -7.96875 C 8.75 -7.425781 8.984375 -6.640625 8.984375 -5.609375 L 8.984375 0 L 6.828125 0 L 6.828125 -5.34375 C 6.828125 -5.914062 6.710938 -6.328125 6.484375 -6.578125 C 6.253906 -6.828125 5.882812 -6.953125 5.375 -6.953125 C 4.757812 -6.953125 4.273438 -6.75 3.921875 -6.34375 C 3.578125 -5.945312 3.40625 -5.320312 3.40625 -4.46875 L 3.40625 0 Z M 1.25 0 "/></g></g><g style="fill:#000000;fill-opacity:1;"><g transform="translate(156.116266, 286.158819)"><path style="stroke:none" d="M 1.515625 0 L 1.515625 -6.90625 L 0.296875 -6.90625 L 0.296875 -8.625 L 1.515625 -8.625 C 1.421875 -8.988281 1.375 -9.332031 1.375 -9.65625 C 1.375 -10.195312 1.5 -10.660156 1.75 -11.046875 C 2 -11.441406 2.359375 -11.738281 2.828125 -11.9375 C 3.296875 -12.144531 3.851562 -12.25 4.5 -12.25 C 5.457031 -12.25 6.171875 -12.082031 6.640625 -11.75 L 6.125 -10.15625 L 5.96875 -10.125 C 5.644531 -10.351562 5.226562 -10.46875 4.71875 -10.46875 C 4.332031 -10.46875 4.039062 -10.375 3.84375 -10.1875 C 3.644531 -10 3.546875 -9.738281 3.546875 -9.40625 C 3.546875 -9.269531 3.554688 -9.140625 3.578125 -9.015625 C 3.597656 -8.898438 3.628906 -8.769531 3.671875 -8.625 L 6.140625 -8.625 L 6.140625 -6.90625 L 3.671875 -6.90625 L 3.671875 0 Z M 1.515625 0 "/></g></g><g style="fill:#000000;fill-opacity:1;"><g transform="translate(162.333497, 286.158819)"><path style="stroke:none" d="M 2.328125 -9.65625 C 1.929688 -9.65625 1.609375 -9.769531 1.359375 -10 C 1.117188 -10.238281 1 -10.546875 1 -10.921875 C 1 -11.296875 1.117188 -11.597656 1.359375 -11.828125 C 1.609375 -12.066406 1.929688 -12.1875 2.328125 -12.1875 C 2.585938 -12.1875 2.816406 -12.128906 3.015625 -12.015625 C 3.222656 -11.910156 3.378906 -11.765625 3.484375 -11.578125 C 3.597656 -11.390625 3.65625 -11.171875 3.65625 -10.921875 C 3.65625 -10.679688 3.597656 -10.460938 3.484375 -10.265625 C 3.378906 -10.078125 3.222656 -9.925781 3.015625 -9.8125 C 2.816406 -9.707031 2.585938 -9.65625 2.328125 -9.65625 Z M 1.25 0 L 1.25 -8.625 L 3.40625 -8.625 L 3.40625 0 Z M 1.25 0 "/></g></g><g style="fill:#000000;fill-opacity:1;"><g transform="translate(166.972989, 286.158819)"><path style="stroke:none" d="M 1.25 0 L 1.25 -8.625 L 3.34375 -8.625 L 3.34375 -7.34375 L 3.515625 -7.3125 C 3.722656 -7.789062 3.992188 -8.140625 4.328125 -8.359375 C 4.671875 -8.585938 5.082031 -8.703125 5.5625 -8.703125 C 6.050781 -8.703125 6.425781 -8.617188 6.6875 -8.453125 L 6.3125 -6.578125 L 6.15625 -6.546875 C 6.007812 -6.609375 5.867188 -6.648438 5.734375 -6.671875 C 5.609375 -6.703125 5.453125 -6.71875 5.265625 -6.71875 C 4.660156 -6.71875 4.195312 -6.503906 3.875 -6.078125 C 3.5625 -5.648438 3.40625 -4.96875 3.40625 -4.03125 L 3.40625 0 Z M 1.25 0 "/></g></g><g style="fill:#000000;fill-opacity:1;"><g transform="translate(173.729157, 286.158819)"><path style="stroke:none" d="M 1.25 0 L 1.25 -8.625 L 3.328125 -8.625 L 3.328125 -7.46875 L 3.484375 -7.4375 C 3.765625 -7.894531 4.09375 -8.234375 4.46875 -8.453125 C 4.851562 -8.671875 5.335938 -8.78125 5.921875 -8.78125 C 6.578125 -8.78125 7.101562 -8.648438 7.5 -8.390625 C 7.894531 -8.140625 8.179688 -7.765625 8.359375 -7.265625 L 8.53125 -7.265625 C 8.789062 -7.785156 9.128906 -8.164062 9.546875 -8.40625 C 9.972656 -8.65625 10.5 -8.78125 11.125 -8.78125 C 12.90625 -8.78125 13.796875 -7.785156 13.796875 -5.796875 L 13.796875 0 L 11.640625 0 L 11.640625 -5.53125 C 11.640625 -6.03125 11.539062 -6.390625 11.34375 -6.609375 C 11.144531 -6.835938 10.828125 -6.953125 10.390625 -6.953125 C 9.203125 -6.953125 8.609375 -6.160156 8.609375 -4.578125 L 8.609375 0 L 6.4375 0 L 6.4375 -5.53125 C 6.4375 -6.03125 6.335938 -6.390625 6.140625 -6.609375 C 5.941406 -6.835938 5.625 -6.953125 5.1875 -6.953125 C 4.625 -6.953125 4.1875 -6.765625 3.875 -6.390625 C 3.5625 -6.023438 3.40625 -5.4375 3.40625 -4.625 L 3.40625 0 Z M 1.25 0 "/></g></g><g style="fill:#000000;fill-opacity:1;"><g transform="translate(188.631767, 286.158819)"><path style="stroke:none" d=""/></g></g><g style="fill:#000000;fill-opacity:1;"><g transform="translate(192.404288, 286.158819)"><path style="stroke:none" d="M 3.5625 0 L 1.484375 0 L 1.484375 -11.421875 L 4.4375 -11.421875 L 7.328125 -3.03125 L 7.5 -3.03125 L 10.375 -11.421875 L 13.25 -11.421875 L 13.25 0 L 11.109375 0 L 11.109375 -7.546875 L 10.921875 -7.578125 L 8.28125 0 L 6.390625 0 L 3.75 -7.578125 L 3.5625 -7.546875 Z M 3.5625 0 "/></g></g><g style="fill:#000000;fill-opacity:1;"><g transform="translate(207.142882, 286.158819)"><path style="stroke:none" d="M 8.515625 -3.828125 L 2.984375 -3.828125 C 3.046875 -3.078125 3.257812 -2.53125 3.625 -2.1875 C 3.988281 -1.84375 4.484375 -1.671875 5.109375 -1.671875 C 5.609375 -1.671875 6.007812 -1.765625 6.3125 -1.953125 C 6.625 -2.140625 6.875 -2.421875 7.0625 -2.796875 L 7.21875 -2.796875 L 8.65625 -1.875 C 8.375 -1.269531 7.945312 -0.773438 7.375 -0.390625 C 6.8125 -0.015625 6.054688 0.171875 5.109375 0.171875 C 4.222656 0.171875 3.453125 0 2.796875 -0.34375 C 2.148438 -0.6875 1.648438 -1.191406 1.296875 -1.859375 C 0.953125 -2.523438 0.78125 -3.34375 0.78125 -4.3125 C 0.78125 -5.289062 0.960938 -6.113281 1.328125 -6.78125 C 1.703125 -7.457031 2.203125 -7.957031 2.828125 -8.28125 C 3.460938 -8.613281 4.171875 -8.78125 4.953125 -8.78125 C 6.171875 -8.78125 7.101562 -8.457031 7.75 -7.8125 C 8.40625 -7.164062 8.734375 -6.21875 8.734375 -4.96875 C 8.734375 -4.519531 8.71875 -4.171875 8.6875 -3.921875 Z M 6.65625 -5.21875 C 6.632812 -5.875 6.484375 -6.351562 6.203125 -6.65625 C 5.921875 -6.957031 5.503906 -7.109375 4.953125 -7.109375 C 3.859375 -7.109375 3.21875 -6.476562 3.03125 -5.21875 Z M 6.65625 -5.21875 "/></g></g><g style="fill:#000000;fill-opacity:1;"><g transform="translate(216.507787, 286.158819)"><path style="stroke:none" d="M 4.265625 0.171875 C 3.578125 0.171875 2.972656 0.00390625 2.453125 -0.328125 C 1.929688 -0.660156 1.519531 -1.160156 1.21875 -1.828125 C 0.925781 -2.503906 0.78125 -3.332031 0.78125 -4.3125 C 0.78125 -5.289062 0.929688 -6.113281 1.234375 -6.78125 C 1.535156 -7.457031 1.957031 -7.957031 2.5 -8.28125 C 3.039062 -8.613281 3.664062 -8.78125 4.375 -8.78125 C 4.90625 -8.78125 5.367188 -8.6875 5.765625 -8.5 C 6.160156 -8.320312 6.492188 -8.035156 6.765625 -7.640625 L 6.921875 -7.6875 L 6.921875 -12.078125 L 9.09375 -12.078125 L 9.09375 0 L 6.921875 0 L 6.921875 -1.125 L 6.765625 -1.15625 C 6.523438 -0.75 6.195312 -0.425781 5.78125 -0.1875 C 5.363281 0.0507812 4.859375 0.171875 4.265625 0.171875 Z M 4.96875 -1.671875 C 5.570312 -1.671875 6.050781 -1.890625 6.40625 -2.328125 C 6.757812 -2.765625 6.9375 -3.425781 6.9375 -4.3125 C 6.9375 -5.195312 6.757812 -5.859375 6.40625 -6.296875 C 6.050781 -6.734375 5.570312 -6.953125 4.96875 -6.953125 C 4.332031 -6.953125 3.84375 -6.738281 3.5 -6.3125 C 3.164062 -5.882812 3 -5.21875 3 -4.3125 C 3 -3.40625 3.164062 -2.738281 3.5 -2.3125 C 3.84375 -1.882812 4.332031 -1.671875 4.96875 -1.671875 Z M 4.96875 -1.671875 "/></g></g><g style="fill:#000000;fill-opacity:1;"><g transform="translate(226.83339, 286.158819)"><path style="stroke:none" d="M 2.328125 -9.65625 C 1.929688 -9.65625 1.609375 -9.769531 1.359375 -10 C 1.117188 -10.238281 1 -10.546875 1 -10.921875 C 1 -11.296875 1.117188 -11.597656 1.359375 -11.828125 C 1.609375 -12.066406 1.929688 -12.1875 2.328125 -12.1875 C 2.585938 -12.1875 2.816406 -12.128906 3.015625 -12.015625 C 3.222656 -11.910156 3.378906 -11.765625 3.484375 -11.578125 C 3.597656 -11.390625 3.65625 -11.171875 3.65625 -10.921875 C 3.65625 -10.679688 3.597656 -10.460938 3.484375 -10.265625 C 3.378906 -10.078125 3.222656 -9.925781 3.015625 -9.8125 C 2.816406 -9.707031 2.585938 -9.65625 2.328125 -9.65625 Z M 1.25 0 L 1.25 -8.625 L 3.40625 -8.625 L 3.40625 0 Z M 1.25 0 "/></g></g><g style="fill:#000000;fill-opacity:1;"><g transform="translate(231.472882, 286.158819)"><path style="stroke:none" d="M 5.03125 0.171875 C 4.195312 0.171875 3.457031 0 2.8125 -0.34375 C 2.175781 -0.695312 1.675781 -1.207031 1.3125 -1.875 C 0.957031 -2.550781 0.78125 -3.363281 0.78125 -4.3125 C 0.78125 -5.257812 0.957031 -6.066406 1.3125 -6.734375 C 1.675781 -7.410156 2.175781 -7.921875 2.8125 -8.265625 C 3.445312 -8.609375 4.171875 -8.78125 4.984375 -8.78125 C 6.804688 -8.78125 7.972656 -8.125 8.484375 -6.8125 L 7 -5.75 L 6.828125 -5.75 C 6.648438 -6.15625 6.421875 -6.457031 6.140625 -6.65625 C 5.859375 -6.851562 5.472656 -6.953125 4.984375 -6.953125 C 4.359375 -6.953125 3.867188 -6.734375 3.515625 -6.296875 C 3.171875 -5.867188 3 -5.207031 3 -4.3125 C 3 -3.425781 3.175781 -2.765625 3.53125 -2.328125 C 3.882812 -1.890625 4.382812 -1.671875 5.03125 -1.671875 C 5.5 -1.671875 5.894531 -1.796875 6.21875 -2.046875 C 6.539062 -2.304688 6.773438 -2.671875 6.921875 -3.140625 L 7.078125 -3.15625 L 8.625 -2.3125 C 8.40625 -1.582031 8 -0.984375 7.40625 -0.515625 C 6.8125 -0.0546875 6.019531 0.171875 5.03125 0.171875 Z M 5.03125 0.171875 "/></g></g><g style="fill:#000000;fill-opacity:1;"><g transform="translate(240.353531, 286.158819)"><path style="stroke:none" d="M 2.328125 -9.65625 C 1.929688 -9.65625 1.609375 -9.769531 1.359375 -10 C 1.117188 -10.238281 1 -10.546875 1 -10.921875 C 1 -11.296875 1.117188 -11.597656 1.359375 -11.828125 C 1.609375 -12.066406 1.929688 -12.1875 2.328125 -12.1875 C 2.585938 -12.1875 2.816406 -12.128906 3.015625 -12.015625 C 3.222656 -11.910156 3.378906 -11.765625 3.484375 -11.578125 C 3.597656 -11.390625 3.65625 -11.171875 3.65625 -10.921875 C 3.65625 -10.679688 3.597656 -10.460938 3.484375 -10.265625 C 3.378906 -10.078125 3.222656 -9.925781 3.015625 -9.8125 C 2.816406 -9.707031 2.585938 -9.65625 2.328125 -9.65625 Z M 1.25 0 L 1.25 -8.625 L 3.40625 -8.625 L 3.40625 0 Z M 1.25 0 "/></g></g><g style="fill:#000000;fill-opacity:1;"><g transform="translate(244.993023, 286.158819)"><path style="stroke:none" d="M 1.25 0 L 1.25 -8.625 L 3.328125 -8.625 L 3.328125 -7.359375 L 3.484375 -7.3125 C 4.023438 -8.289062 4.894531 -8.78125 6.09375 -8.78125 C 7.09375 -8.78125 7.820312 -8.507812 8.28125 -7.96875 C 8.75 -7.425781 8.984375 -6.640625 8.984375 -5.609375 L 8.984375 0 L 6.828125 0 L 6.828125 -5.34375 C 6.828125 -5.914062 6.710938 -6.328125 6.484375 -6.578125 C 6.253906 -6.828125 5.882812 -6.953125 5.375 -6.953125 C 4.757812 -6.953125 4.273438 -6.75 3.921875 -6.34375 C 3.578125 -5.945312 3.40625 -5.320312 3.40625 -4.46875 L 3.40625 0 Z M 1.25 0 "/></g></g><g style="fill:#000000;fill-opacity:1;"><g transform="translate(255.084308, 286.158819)"><path style="stroke:none" d="M 8.515625 -3.828125 L 2.984375 -3.828125 C 3.046875 -3.078125 3.257812 -2.53125 3.625 -2.1875 C 3.988281 -1.84375 4.484375 -1.671875 5.109375 -1.671875 C 5.609375 -1.671875 6.007812 -1.765625 6.3125 -1.953125 C 6.625 -2.140625 6.875 -2.421875 7.0625 -2.796875 L 7.21875 -2.796875 L 8.65625 -1.875 C 8.375 -1.269531 7.945312 -0.773438 7.375 -0.390625 C 6.8125 -0.015625 6.054688 0.171875 5.109375 0.171875 C 4.222656 0.171875 3.453125 0 2.796875 -0.34375 C 2.148438 -0.6875 1.648438 -1.191406 1.296875 -1.859375 C 0.953125 -2.523438 0.78125 -3.34375 0.78125 -4.3125 C 0.78125 -5.289062 0.960938 -6.113281 1.328125 -6.78125 C 1.703125 -7.457031 2.203125 -7.957031 2.828125 -8.28125 C 3.460938 -8.613281 4.171875 -8.78125 4.953125 -8.78125 C 6.171875 -8.78125 7.101562 -8.457031 7.75 -7.8125 C 8.40625 -7.164062 8.734375 -6.21875 8.734375 -4.96875 C 8.734375 -4.519531 8.71875 -4.171875 8.6875 -3.921875 Z M 6.65625 -5.21875 C 6.632812 -5.875 6.484375 -6.351562 6.203125 -6.65625 C 5.921875 -6.957031 5.503906 -7.109375 4.953125 -7.109375 C 3.859375 -7.109375 3.21875 -6.476562 3.03125 -5.21875 Z M 6.65625 -5.21875 "/></g></g></g></svg>