<svg xmlns="http://www.w3.org/2000/svg" xmlns:xlink="http://www.w3.org/1999/xlink" width="500" zoomAndPan="magnify" viewBox="0 0 375 374.999991" height="500" preserveAspectRatio="xMidYMid meet" version="1.2"><defs><clipPath id="447d749b34"><path d="M 112.5 112.5 L 262.5 112.5 L 262.5 262.5 L 112.5 262.5 Z M 112.5 112.5 "/></clipPath></defs><g id="5bff9b01fb"><g clip-rule="nonzero" clip-path="url(#447d749b34)"><path style=" stroke:none;fill-rule:nonzero;fill:#000000;fill-opacity:1;" d="M 262.203125 150.4375 C 262.011719 149.980469 261.730469 149.558594 261.375 149.207031 L 225.789062 113.617188 C 225.078125 112.90625 224.109375 112.5 223.09375 112.5 L 156.992188 112.5 C 149.261719 112.5 143.007812 118.753906 143.007812 126.484375 L 143.007812 148.09375 L 129.027344 148.09375 C 119.914062 148.09375 112.5 155.507812 112.5 164.617188 L 112.5 223.09375 C 112.5 230.804688 118.773438 237.078125 126.484375 237.078125 L 228.179688 237.078125 C 235.890625 237.078125 242.160156 230.804688 242.160156 223.09375 L 242.160156 187.5 C 242.160156 179.789062 235.890625 173.515625 228.179688 173.515625 L 150.636719 173.515625 L 150.636719 126.484375 C 150.636719 122.972656 153.484375 120.128906 156.992188 120.128906 L 219.28125 120.128906 L 219.28125 151.90625 C 219.28125 154.011719 220.988281 155.71875 223.09375 155.71875 L 254.871094 155.71875 L 254.871094 248.515625 C 254.871094 252.027344 252.027344 254.871094 248.515625 254.871094 L 156.992188 254.871094 C 153.484375 254.871094 150.636719 252.027344 150.636719 248.515625 L 150.636719 244.703125 L 143.007812 244.703125 L 143.007812 248.515625 C 143.007812 256.246094 149.261719 262.5 156.992188 262.5 L 248.515625 262.5 C 256.246094 262.5 262.5 256.246094 262.5 248.515625 C 262.5 248.515625 262.5 151.90625 262.5 151.90625 C 262.5 151.402344 262.394531 150.902344 262.203125 150.4375 Z M 204.027344 192.585938 C 204.027344 190.480469 205.734375 188.769531 207.839844 188.769531 L 215.464844 188.769531 C 221.773438 188.769531 226.90625 193.902344 226.90625 200.210938 C 226.90625 204.066406 224.980469 207.464844 222.050781 209.539062 L 226.269531 215.902344 C 227.4375 217.65625 226.957031 220.023438 225.199219 221.1875 C 224.554688 221.617188 223.820312 221.820312 223.09375 221.820312 C 221.863281 221.820312 220.648438 221.222656 219.914062 220.117188 L 214.300781 211.652344 L 211.652344 211.652344 L 211.652344 218.007812 C 211.652344 220.113281 209.945312 221.820312 207.839844 221.820312 C 205.734375 221.820312 204.027344 220.113281 204.027344 218.007812 Z M 184.957031 188.769531 C 188.53125 188.769531 192.058594 189.949219 194.882812 192.085938 C 196.566406 193.355469 196.898438 195.746094 195.625 197.425781 C 194.355469 199.105469 191.960938 199.441406 190.285156 198.167969 C 188.773438 197.027344 186.882812 196.398438 184.957031 196.398438 C 180.050781 196.398438 176.058594 200.390625 176.058594 205.296875 C 176.058594 210.203125 180.050781 214.195312 184.957031 214.195312 C 186.882812 214.195312 188.773438 213.566406 190.285156 212.425781 C 191.960938 211.152344 194.351562 211.480469 195.625 213.167969 C 196.898438 214.84375 196.566406 217.238281 194.882812 218.507812 C 192.058594 220.644531 188.53125 221.820312 184.957031 221.820312 C 175.847656 221.820312 168.433594 214.410156 168.433594 205.296875 C 168.433594 196.183594 175.847656 188.769531 184.957031 188.769531 Z M 160.804688 205.296875 C 160.804688 214.410156 153.390625 221.820312 144.28125 221.820312 C 135.167969 221.820312 127.753906 214.410156 127.753906 205.296875 C 127.753906 196.183594 135.167969 188.769531 144.28125 188.769531 C 153.390625 188.769531 160.804688 196.183594 160.804688 205.296875 Z M 129.027344 173.515625 C 124.160156 173.515625 120.128906 169.472656 120.128906 164.617188 C 120.128906 159.710938 124.121094 155.71875 129.027344 155.71875 L 143.007812 155.71875 L 143.007812 173.515625 C 143.007812 173.515625 129.046875 173.515625 129.027344 173.515625 Z M 129.027344 173.515625 "/></g><path style=" stroke:none;fill-rule:nonzero;fill:#000000;fill-opacity:1;" d="M 202.753906 127.753906 L 167.160156 127.753906 C 165.054688 127.753906 163.347656 129.460938 163.347656 131.566406 C 163.347656 133.671875 165.054688 135.382812 167.160156 135.382812 L 202.753906 135.382812 C 204.859375 135.382812 206.566406 133.671875 206.566406 131.566406 C 206.566406 129.460938 204.859375 127.753906 202.753906 127.753906 Z M 202.753906 127.753906 "/><path style=" stroke:none;fill-rule:nonzero;fill:#000000;fill-opacity:1;" d="M 202.753906 143.007812 L 167.160156 143.007812 C 165.054688 143.007812 163.347656 144.714844 163.347656 146.820312 C 163.347656 148.925781 165.054688 150.636719 167.160156 150.636719 L 202.753906 150.636719 C 204.859375 150.636719 206.566406 148.925781 206.566406 146.820312 C 206.566406 144.714844 204.859375 143.007812 202.753906 143.007812 Z M 202.753906 143.007812 "/><path style=" stroke:none;fill-rule:nonzero;fill:#000000;fill-opacity:1;" d="M 215.492188 204.019531 C 215.546875 204.007812 215.597656 203.996094 215.652344 203.988281 C 217.664062 203.886719 219.28125 202.25 219.28125 200.210938 C 219.28125 198.109375 217.570312 196.398438 215.464844 196.398438 L 211.652344 196.398438 L 211.652344 204.027344 L 215.464844 204.027344 C 215.476562 204.027344 215.484375 204.019531 215.492188 204.019531 Z M 215.492188 204.019531 "/><path style=" stroke:none;fill-rule:nonzero;fill:#000000;fill-opacity:1;" d="M 153.179688 205.296875 C 153.179688 205.882812 153.121094 206.460938 153.007812 207.03125 C 152.894531 207.605469 152.722656 208.160156 152.5 208.703125 C 152.277344 209.242188 152.003906 209.753906 151.679688 210.238281 C 151.355469 210.726562 150.984375 211.175781 150.570312 211.589844 C 150.160156 212 149.710938 212.371094 149.222656 212.695312 C 148.738281 213.019531 148.226562 213.292969 147.683594 213.515625 C 147.144531 213.742188 146.589844 213.910156 146.015625 214.023438 C 145.441406 214.136719 144.863281 214.195312 144.28125 214.195312 C 143.695312 214.195312 143.117188 214.136719 142.542969 214.023438 C 141.96875 213.910156 141.414062 213.742188 140.875 213.515625 C 140.335938 213.292969 139.820312 213.019531 139.335938 212.695312 C 138.851562 212.371094 138.402344 212 137.988281 211.589844 C 137.574219 211.175781 137.207031 210.726562 136.882812 210.238281 C 136.554688 209.753906 136.28125 209.242188 136.058594 208.703125 C 135.835938 208.160156 135.667969 207.605469 135.550781 207.03125 C 135.4375 206.460938 135.382812 205.882812 135.382812 205.296875 C 135.382812 204.710938 135.4375 204.132812 135.550781 203.5625 C 135.667969 202.988281 135.835938 202.429688 136.058594 201.890625 C 136.28125 201.351562 136.554688 200.839844 136.882812 200.351562 C 137.207031 199.867188 137.574219 199.417969 137.988281 199.003906 C 138.402344 198.589844 138.851562 198.222656 139.335938 197.898438 C 139.820312 197.574219 140.335938 197.300781 140.875 197.074219 C 141.414062 196.851562 141.96875 196.683594 142.542969 196.570312 C 143.117188 196.457031 143.695312 196.398438 144.28125 196.398438 C 144.863281 196.398438 145.441406 196.457031 146.015625 196.570312 C 146.589844 196.683594 147.144531 196.851562 147.683594 197.074219 C 148.226562 197.300781 148.738281 197.574219 149.222656 197.898438 C 149.710938 198.222656 150.160156 198.589844 150.570312 199.003906 C 150.984375 199.417969 151.355469 199.867188 151.679688 200.351562 C 152.003906 200.839844 152.277344 201.351562 152.5 201.890625 C 152.722656 202.429688 152.894531 202.988281 153.007812 203.5625 C 153.121094 204.132812 153.179688 204.710938 153.179688 205.296875 Z M 153.179688 205.296875 "/><g style="fill:#000000;fill-opacity:1;"><g transform="translate(102.512612, 292.880078)"><path style="stroke:none" d="M 5.59375 -11.421875 C 7.445312 -11.421875 8.863281 -10.941406 9.84375 -9.984375 C 10.820312 -9.023438 11.3125 -7.601562 11.3125 -5.71875 C 11.3125 -3.832031 10.820312 -2.40625 9.84375 -1.4375 C 8.863281 -0.476562 7.445312 0 5.59375 0 L 1.484375 0 L 1.484375 -11.421875 Z M 5.46875 -1.90625 C 6.644531 -1.90625 7.523438 -2.203125 8.109375 -2.796875 C 8.691406 -3.398438 8.984375 -4.375 8.984375 -5.71875 C 8.984375 -7.050781 8.691406 -8.019531 8.109375 -8.625 C 7.523438 -9.226562 6.644531 -9.53125 5.46875 -9.53125 L 3.75 -9.53125 L 3.75 -1.90625 Z M 5.46875 -1.90625 "/></g></g><g style="fill:#000000;fill-opacity:1;"><g transform="translate(114.720573, 292.880078)"><path style="stroke:none" d="M 5.015625 0.171875 C 4.171875 0.171875 3.425781 0 2.78125 -0.34375 C 2.144531 -0.695312 1.648438 -1.207031 1.296875 -1.875 C 0.953125 -2.550781 0.78125 -3.363281 0.78125 -4.3125 C 0.78125 -5.257812 0.953125 -6.066406 1.296875 -6.734375 C 1.648438 -7.410156 2.144531 -7.921875 2.78125 -8.265625 C 3.425781 -8.609375 4.171875 -8.78125 5.015625 -8.78125 C 5.859375 -8.78125 6.597656 -8.609375 7.234375 -8.265625 C 7.867188 -7.921875 8.363281 -7.410156 8.71875 -6.734375 C 9.070312 -6.066406 9.25 -5.257812 9.25 -4.3125 C 9.25 -3.363281 9.070312 -2.550781 8.71875 -1.875 C 8.363281 -1.207031 7.867188 -0.695312 7.234375 -0.34375 C 6.597656 0 5.859375 0.171875 5.015625 0.171875 Z M 5.015625 -1.671875 C 6.347656 -1.671875 7.015625 -2.550781 7.015625 -4.3125 C 7.015625 -5.21875 6.84375 -5.882812 6.5 -6.3125 C 6.15625 -6.738281 5.660156 -6.953125 5.015625 -6.953125 C 3.671875 -6.953125 3 -6.070312 3 -4.3125 C 3 -2.550781 3.671875 -1.671875 5.015625 -1.671875 Z M 5.015625 -1.671875 "/></g></g><g style="fill:#000000;fill-opacity:1;"><g transform="translate(124.733752, 292.880078)"><path style="stroke:none" d="M 5.03125 0.171875 C 4.195312 0.171875 3.457031 0 2.8125 -0.34375 C 2.175781 -0.695312 1.675781 -1.207031 1.3125 -1.875 C 0.957031 -2.550781 0.78125 -3.363281 0.78125 -4.3125 C 0.78125 -5.257812 0.957031 -6.066406 1.3125 -6.734375 C 1.675781 -7.410156 2.175781 -7.921875 2.8125 -8.265625 C 3.445312 -8.609375 4.171875 -8.78125 4.984375 -8.78125 C 6.804688 -8.78125 7.972656 -8.125 8.484375 -6.8125 L 7 -5.75 L 6.828125 -5.75 C 6.648438 -6.15625 6.421875 -6.457031 6.140625 -6.65625 C 5.859375 -6.851562 5.472656 -6.953125 4.984375 -6.953125 C 4.359375 -6.953125 3.867188 -6.734375 3.515625 -6.296875 C 3.171875 -5.867188 3 -5.207031 3 -4.3125 C 3 -3.425781 3.175781 -2.765625 3.53125 -2.328125 C 3.882812 -1.890625 4.382812 -1.671875 5.03125 -1.671875 C 5.5 -1.671875 5.894531 -1.796875 6.21875 -2.046875 C 6.539062 -2.304688 6.773438 -2.671875 6.921875 -3.140625 L 7.078125 -3.15625 L 8.625 -2.3125 C 8.40625 -1.582031 8 -0.984375 7.40625 -0.515625 C 6.8125 -0.0546875 6.019531 0.171875 5.03125 0.171875 Z M 5.03125 0.171875 "/></g></g><g style="fill:#000000;fill-opacity:1;"><g transform="translate(133.614401, 292.880078)"><path style="stroke:none" d="M 3.953125 0.171875 C 2.984375 0.171875 2.265625 -0.09375 1.796875 -0.625 C 1.335938 -1.15625 1.109375 -1.914062 1.109375 -2.90625 L 1.109375 -8.625 L 3.28125 -8.625 L 3.28125 -3.1875 C 3.28125 -2.65625 3.390625 -2.269531 3.609375 -2.03125 C 3.835938 -1.789062 4.191406 -1.671875 4.671875 -1.671875 C 5.265625 -1.671875 5.726562 -1.863281 6.0625 -2.25 C 6.394531 -2.644531 6.5625 -3.265625 6.5625 -4.109375 L 6.5625 -8.625 L 8.734375 -8.625 L 8.734375 0 L 6.65625 0 L 6.65625 -1.265625 L 6.484375 -1.3125 C 6.210938 -0.8125 5.875 -0.4375 5.46875 -0.1875 C 5.070312 0.0507812 4.566406 0.171875 3.953125 0.171875 Z M 3.953125 0.171875 "/></g></g><g style="fill:#000000;fill-opacity:1;"><g transform="translate(143.580716, 292.880078)"><path style="stroke:none" d="M 1.25 0 L 1.25 -8.625 L 3.328125 -8.625 L 3.328125 -7.46875 L 3.484375 -7.4375 C 3.765625 -7.894531 4.09375 -8.234375 4.46875 -8.453125 C 4.851562 -8.671875 5.335938 -8.78125 5.921875 -8.78125 C 6.578125 -8.78125 7.101562 -8.648438 7.5 -8.390625 C 7.894531 -8.140625 8.179688 -7.765625 8.359375 -7.265625 L 8.53125 -7.265625 C 8.789062 -7.785156 9.128906 -8.164062 9.546875 -8.40625 C 9.972656 -8.65625 10.5 -8.78125 11.125 -8.78125 C 12.90625 -8.78125 13.796875 -7.785156 13.796875 -5.796875 L 13.796875 0 L 11.640625 0 L 11.640625 -5.53125 C 11.640625 -6.03125 11.539062 -6.390625 11.34375 -6.609375 C 11.144531 -6.835938 10.828125 -6.953125 10.390625 -6.953125 C 9.203125 -6.953125 8.609375 -6.160156 8.609375 -4.578125 L 8.609375 0 L 6.4375 0 L 6.4375 -5.53125 C 6.4375 -6.03125 6.335938 -6.390625 6.140625 -6.609375 C 5.941406 -6.835938 5.625 -6.953125 5.1875 -6.953125 C 4.625 -6.953125 4.1875 -6.765625 3.875 -6.390625 C 3.5625 -6.023438 3.40625 -5.4375 3.40625 -4.625 L 3.40625 0 Z M 1.25 0 "/></g></g><g style="fill:#000000;fill-opacity:1;"><g transform="translate(158.483326, 292.880078)"><path style="stroke:none" d="M 8.515625 -3.828125 L 2.984375 -3.828125 C 3.046875 -3.078125 3.257812 -2.53125 3.625 -2.1875 C 3.988281 -1.84375 4.484375 -1.671875 5.109375 -1.671875 C 5.609375 -1.671875 6.007812 -1.765625 6.3125 -1.953125 C 6.625 -2.140625 6.875 -2.421875 7.0625 -2.796875 L 7.21875 -2.796875 L 8.65625 -1.875 C 8.375 -1.269531 7.945312 -0.773438 7.375 -0.390625 C 6.8125 -0.015625 6.054688 0.171875 5.109375 0.171875 C 4.222656 0.171875 3.453125 0 2.796875 -0.34375 C 2.148438 -0.6875 1.648438 -1.191406 1.296875 -1.859375 C 0.953125 -2.523438 0.78125 -3.34375 0.78125 -4.3125 C 0.78125 -5.289062 0.960938 -6.113281 1.328125 -6.78125 C 1.703125 -7.457031 2.203125 -7.957031 2.828125 -8.28125 C 3.460938 -8.613281 4.171875 -8.78125 4.953125 -8.78125 C 6.171875 -8.78125 7.101562 -8.457031 7.75 -7.8125 C 8.40625 -7.164062 8.734375 -6.21875 8.734375 -4.96875 C 8.734375 -4.519531 8.71875 -4.171875 8.6875 -3.921875 Z M 6.65625 -5.21875 C 6.632812 -5.875 6.484375 -6.351562 6.203125 -6.65625 C 5.921875 -6.957031 5.503906 -7.109375 4.953125 -7.109375 C 3.859375 -7.109375 3.21875 -6.476562 3.03125 -5.21875 Z M 6.65625 -5.21875 "/></g></g><g style="fill:#000000;fill-opacity:1;"><g transform="translate(167.848232, 292.880078)"><path style="stroke:none" d="M 1.25 0 L 1.25 -8.625 L 3.328125 -8.625 L 3.328125 -7.359375 L 3.484375 -7.3125 C 4.023438 -8.289062 4.894531 -8.78125 6.09375 -8.78125 C 7.09375 -8.78125 7.820312 -8.507812 8.28125 -7.96875 C 8.75 -7.425781 8.984375 -6.640625 8.984375 -5.609375 L 8.984375 0 L 6.828125 0 L 6.828125 -5.34375 C 6.828125 -5.914062 6.710938 -6.328125 6.484375 -6.578125 C 6.253906 -6.828125 5.882812 -6.953125 5.375 -6.953125 C 4.757812 -6.953125 4.273438 -6.75 3.921875 -6.34375 C 3.578125 -5.945312 3.40625 -5.320312 3.40625 -4.46875 L 3.40625 0 Z M 1.25 0 "/></g></g><g style="fill:#000000;fill-opacity:1;"><g transform="translate(177.877032, 292.880078)"><path style="stroke:none" d="M 5.953125 -2.0625 L 6.515625 -0.453125 C 6.273438 -0.265625 5.976562 -0.113281 5.625 0 C 5.269531 0.113281 4.867188 0.171875 4.421875 0.171875 C 3.492188 0.171875 2.785156 -0.0820312 2.296875 -0.59375 C 1.816406 -1.101562 1.578125 -1.84375 1.578125 -2.8125 L 1.578125 -6.90625 L 0.265625 -6.90625 L 0.265625 -8.625 L 1.578125 -8.625 L 1.578125 -10.3125 L 3.734375 -10.65625 L 3.734375 -8.625 L 6.1875 -8.625 L 6.1875 -6.90625 L 3.734375 -6.90625 L 3.734375 -2.96875 C 3.734375 -2.539062 3.820312 -2.226562 4 -2.03125 C 4.175781 -1.84375 4.4375 -1.75 4.78125 -1.75 C 5.164062 -1.75 5.5 -1.851562 5.78125 -2.0625 Z M 5.953125 -2.0625 "/></g></g><g style="fill:#000000;fill-opacity:1;"><g transform="translate(184.570716, 292.880078)"><path style="stroke:none" d=""/></g></g><g style="fill:#000000;fill-opacity:1;"><g transform="translate(188.343237, 292.880078)"><path style="stroke:none" d="M 9.15625 -11.421875 L 9.15625 -9.53125 L 5.859375 -9.53125 L 5.859375 0 L 3.609375 0 L 3.609375 -9.53125 L 0.3125 -9.53125 L 0.3125 -11.421875 Z M 9.15625 -11.421875 "/></g></g><g style="fill:#000000;fill-opacity:1;"><g transform="translate(196.700479, 292.880078)"><path style="stroke:none" d="M 8.515625 -3.828125 L 2.984375 -3.828125 C 3.046875 -3.078125 3.257812 -2.53125 3.625 -2.1875 C 3.988281 -1.84375 4.484375 -1.671875 5.109375 -1.671875 C 5.609375 -1.671875 6.007812 -1.765625 6.3125 -1.953125 C 6.625 -2.140625 6.875 -2.421875 7.0625 -2.796875 L 7.21875 -2.796875 L 8.65625 -1.875 C 8.375 -1.269531 7.945312 -0.773438 7.375 -0.390625 C 6.8125 -0.015625 6.054688 0.171875 5.109375 0.171875 C 4.222656 0.171875 3.453125 0 2.796875 -0.34375 C 2.148438 -0.6875 1.648438 -1.191406 1.296875 -1.859375 C 0.953125 -2.523438 0.78125 -3.34375 0.78125 -4.3125 C 0.78125 -5.289062 0.960938 -6.113281 1.328125 -6.78125 C 1.703125 -7.457031 2.203125 -7.957031 2.828125 -8.28125 C 3.460938 -8.613281 4.171875 -8.78125 4.953125 -8.78125 C 6.171875 -8.78125 7.101562 -8.457031 7.75 -7.8125 C 8.40625 -7.164062 8.734375 -6.21875 8.734375 -4.96875 C 8.734375 -4.519531 8.71875 -4.171875 8.6875 -3.921875 Z M 6.65625 -5.21875 C 6.632812 -5.875 6.484375 -6.351562 6.203125 -6.65625 C 5.921875 -6.957031 5.503906 -7.109375 4.953125 -7.109375 C 3.859375 -7.109375 3.21875 -6.476562 3.03125 -5.21875 Z M 6.65625 -5.21875 "/></g></g><g style="fill:#000000;fill-opacity:1;"><g transform="translate(205.932588, 292.880078)"><path style="stroke:none" d="M 2.4375 0 L 0.15625 0 L 2.609375 -4.46875 L 0.28125 -8.625 L 2.59375 -8.625 L 4.09375 -5.78125 L 4.265625 -5.78125 L 5.765625 -8.625 L 8.015625 -8.625 L 5.75 -4.46875 L 8.140625 0 L 5.84375 0 L 4.21875 -3.15625 L 4.03125 -3.15625 Z M 2.4375 0 "/></g></g><g style="fill:#000000;fill-opacity:1;"><g transform="translate(214.219632, 292.880078)"><path style="stroke:none" d="M 5.953125 -2.0625 L 6.515625 -0.453125 C 6.273438 -0.265625 5.976562 -0.113281 5.625 0 C 5.269531 0.113281 4.867188 0.171875 4.421875 0.171875 C 3.492188 0.171875 2.785156 -0.0820312 2.296875 -0.59375 C 1.816406 -1.101562 1.578125 -1.84375 1.578125 -2.8125 L 1.578125 -6.90625 L 0.265625 -6.90625 L 0.265625 -8.625 L 1.578125 -8.625 L 1.578125 -10.3125 L 3.734375 -10.65625 L 3.734375 -8.625 L 6.1875 -8.625 L 6.1875 -6.90625 L 3.734375 -6.90625 L 3.734375 -2.96875 C 3.734375 -2.539062 3.820312 -2.226562 4 -2.03125 C 4.175781 -1.84375 4.4375 -1.75 4.78125 -1.75 C 5.164062 -1.75 5.5 -1.851562 5.78125 -2.0625 Z M 5.953125 -2.0625 "/></g></g><g style="fill:#000000;fill-opacity:1;"><g transform="translate(220.913315, 292.880078)"><path style="stroke:none" d=""/></g></g><g style="fill:#000000;fill-opacity:1;"><g transform="translate(224.685837, 292.880078)"><path style="stroke:none" d="M 3.75 -5.015625 L 3.75 -1.890625 L 9.203125 -1.890625 L 9.203125 0 L 1.484375 0 L 1.484375 -11.421875 L 9.078125 -11.421875 L 9.078125 -9.53125 L 3.75 -9.53125 L 3.75 -6.859375 L 8.40625 -6.859375 L 8.40625 -5.015625 Z M 3.75 -5.015625 "/></g></g><g style="fill:#000000;fill-opacity:1;"><g transform="translate(234.503757, 292.880078)"><path style="stroke:none" d="M 2.4375 0 L 0.15625 0 L 2.609375 -4.46875 L 0.28125 -8.625 L 2.59375 -8.625 L 4.09375 -5.78125 L 4.265625 -5.78125 L 5.765625 -8.625 L 8.015625 -8.625 L 5.75 -4.46875 L 8.140625 0 L 5.84375 0 L 4.21875 -3.15625 L 4.03125 -3.15625 Z M 2.4375 0 "/></g></g><g style="fill:#000000;fill-opacity:1;"><g transform="translate(242.790801, 292.880078)"><path style="stroke:none" d="M 5.953125 -2.0625 L 6.515625 -0.453125 C 6.273438 -0.265625 5.976562 -0.113281 5.625 0 C 5.269531 0.113281 4.867188 0.171875 4.421875 0.171875 C 3.492188 0.171875 2.785156 -0.0820312 2.296875 -0.59375 C 1.816406 -1.101562 1.578125 -1.84375 1.578125 -2.8125 L 1.578125 -6.90625 L 0.265625 -6.90625 L 0.265625 -8.625 L 1.578125 -8.625 L 1.578125 -10.3125 L 3.734375 -10.65625 L 3.734375 -8.625 L 6.1875 -8.625 L 6.1875 -6.90625 L 3.734375 -6.90625 L 3.734375 -2.96875 C 3.734375 -2.539062 3.820312 -2.226562 4 -2.03125 C 4.175781 -1.84375 4.4375 -1.75 4.78125 -1.75 C 5.164062 -1.75 5.5 -1.851562 5.78125 -2.0625 Z M 5.953125 -2.0625 "/></g></g><g style="fill:#000000;fill-opacity:1;"><g transform="translate(249.484484, 292.880078)"><path style="stroke:none" d="M 1.25 0 L 1.25 -8.625 L 3.34375 -8.625 L 3.34375 -7.34375 L 3.515625 -7.3125 C 3.722656 -7.789062 3.992188 -8.140625 4.328125 -8.359375 C 4.671875 -8.585938 5.082031 -8.703125 5.5625 -8.703125 C 6.050781 -8.703125 6.425781 -8.617188 6.6875 -8.453125 L 6.3125 -6.578125 L 6.15625 -6.546875 C 6.007812 -6.609375 5.867188 -6.648438 5.734375 -6.671875 C 5.609375 -6.703125 5.453125 -6.71875 5.265625 -6.71875 C 4.660156 -6.71875 4.195312 -6.503906 3.875 -6.078125 C 3.5625 -5.648438 3.40625 -4.96875 3.40625 -4.03125 L 3.40625 0 Z M 1.25 0 "/></g></g><g style="fill:#000000;fill-opacity:1;"><g transform="translate(256.076612, 292.880078)"><path style="stroke:none" d="M 3.359375 0.171875 C 2.804688 0.171875 2.328125 0.0664062 1.921875 -0.140625 C 1.515625 -0.347656 1.203125 -0.644531 0.984375 -1.03125 C 0.765625 -1.425781 0.65625 -1.898438 0.65625 -2.453125 C 0.65625 -2.960938 0.765625 -3.390625 0.984375 -3.734375 C 1.203125 -4.085938 1.539062 -4.375 2 -4.59375 C 2.457031 -4.8125 3.054688 -4.984375 3.796875 -5.109375 C 4.316406 -5.191406 4.707031 -5.28125 4.96875 -5.375 C 5.238281 -5.476562 5.421875 -5.59375 5.515625 -5.71875 C 5.609375 -5.84375 5.65625 -6 5.65625 -6.1875 C 5.65625 -6.46875 5.554688 -6.679688 5.359375 -6.828125 C 5.171875 -6.972656 4.851562 -7.046875 4.40625 -7.046875 C 3.925781 -7.046875 3.46875 -6.9375 3.03125 -6.71875 C 2.601562 -6.507812 2.234375 -6.226562 1.921875 -5.875 L 1.765625 -5.875 L 0.859375 -7.25 C 1.296875 -7.726562 1.828125 -8.101562 2.453125 -8.375 C 3.085938 -8.644531 3.773438 -8.78125 4.515625 -8.78125 C 5.660156 -8.78125 6.488281 -8.535156 7 -8.046875 C 7.507812 -7.566406 7.765625 -6.882812 7.765625 -6 L 7.765625 -2.25 C 7.765625 -1.863281 7.929688 -1.671875 8.265625 -1.671875 C 8.398438 -1.671875 8.53125 -1.695312 8.65625 -1.75 L 8.765625 -1.71875 L 8.921875 -0.203125 C 8.796875 -0.128906 8.625 -0.0664062 8.40625 -0.015625 C 8.195312 0.0351562 7.96875 0.0625 7.71875 0.0625 C 7.195312 0.0625 6.789062 -0.0351562 6.5 -0.234375 C 6.21875 -0.429688 6.015625 -0.742188 5.890625 -1.171875 L 5.71875 -1.1875 C 5.300781 -0.28125 4.515625 0.171875 3.359375 0.171875 Z M 4.046875 -1.453125 C 4.546875 -1.453125 4.945312 -1.617188 5.25 -1.953125 C 5.550781 -2.296875 5.703125 -2.765625 5.703125 -3.359375 L 5.703125 -4.234375 L 5.546875 -4.265625 C 5.421875 -4.160156 5.25 -4.070312 5.03125 -4 C 4.820312 -3.9375 4.519531 -3.867188 4.125 -3.796875 C 3.65625 -3.722656 3.316406 -3.585938 3.109375 -3.390625 C 2.910156 -3.203125 2.8125 -2.9375 2.8125 -2.59375 C 2.8125 -2.21875 2.921875 -1.929688 3.140625 -1.734375 C 3.359375 -1.546875 3.660156 -1.453125 4.046875 -1.453125 Z M 4.046875 -1.453125 "/></g></g><g style="fill:#000000;fill-opacity:1;"><g transform="translate(265.160337, 292.880078)"><path style="stroke:none" d="M 5.03125 0.171875 C 4.195312 0.171875 3.457031 0 2.8125 -0.34375 C 2.175781 -0.695312 1.675781 -1.207031 1.3125 -1.875 C 0.957031 -2.550781 0.78125 -3.363281 0.78125 -4.3125 C 0.78125 -5.257812 0.957031 -6.066406 1.3125 -6.734375 C 1.675781 -7.410156 2.175781 -7.921875 2.8125 -8.265625 C 3.445312 -8.609375 4.171875 -8.78125 4.984375 -8.78125 C 6.804688 -8.78125 7.972656 -8.125 8.484375 -6.8125 L 7 -5.75 L 6.828125 -5.75 C 6.648438 -6.15625 6.421875 -6.457031 6.140625 -6.65625 C 5.859375 -6.851562 5.472656 -6.953125 4.984375 -6.953125 C 4.359375 -6.953125 3.867188 -6.734375 3.515625 -6.296875 C 3.171875 -5.867188 3 -5.207031 3 -4.3125 C 3 -3.425781 3.175781 -2.765625 3.53125 -2.328125 C 3.882812 -1.890625 4.382812 -1.671875 5.03125 -1.671875 C 5.5 -1.671875 5.894531 -1.796875 6.21875 -2.046875 C 6.539062 -2.304688 6.773438 -2.671875 6.921875 -3.140625 L 7.078125 -3.15625 L 8.625 -2.3125 C 8.40625 -1.582031 8 -0.984375 7.40625 -0.515625 C 6.8125 -0.0546875 6.019531 0.171875 5.03125 0.171875 Z M 5.03125 0.171875 "/></g></g><g style="fill:#000000;fill-opacity:1;"><g transform="translate(274.040986, 292.880078)"><path style="stroke:none" d="M 5.953125 -2.0625 L 6.515625 -0.453125 C 6.273438 -0.265625 5.976562 -0.113281 5.625 0 C 5.269531 0.113281 4.867188 0.171875 4.421875 0.171875 C 3.492188 0.171875 2.785156 -0.0820312 2.296875 -0.59375 C 1.816406 -1.101562 1.578125 -1.84375 1.578125 -2.8125 L 1.578125 -6.90625 L 0.265625 -6.90625 L 0.265625 -8.625 L 1.578125 -8.625 L 1.578125 -10.3125 L 3.734375 -10.65625 L 3.734375 -8.625 L 6.1875 -8.625 L 6.1875 -6.90625 L 3.734375 -6.90625 L 3.734375 -2.96875 C 3.734375 -2.539062 3.820312 -2.226562 4 -2.03125 C 4.175781 -1.84375 4.4375 -1.75 4.78125 -1.75 C 5.164062 -1.75 5.5 -1.851562 5.78125 -2.0625 Z M 5.953125 -2.0625 "/></g></g><g style="fill:#000000;fill-opacity:1;"><g transform="translate(280.734669, 292.880078)"><path style="stroke:none" d="M 2.328125 -9.65625 C 1.929688 -9.65625 1.609375 -9.769531 1.359375 -10 C 1.117188 -10.238281 1 -10.546875 1 -10.921875 C 1 -11.296875 1.117188 -11.597656 1.359375 -11.828125 C 1.609375 -12.066406 1.929688 -12.1875 2.328125 -12.1875 C 2.585938 -12.1875 2.816406 -12.128906 3.015625 -12.015625 C 3.222656 -11.910156 3.378906 -11.765625 3.484375 -11.578125 C 3.597656 -11.390625 3.65625 -11.171875 3.65625 -10.921875 C 3.65625 -10.679688 3.597656 -10.460938 3.484375 -10.265625 C 3.378906 -10.078125 3.222656 -9.925781 3.015625 -9.8125 C 2.816406 -9.707031 2.585938 -9.65625 2.328125 -9.65625 Z M 1.25 0 L 1.25 -8.625 L 3.40625 -8.625 L 3.40625 0 Z M 1.25 0 "/></g></g><g style="fill:#000000;fill-opacity:1;"><g transform="translate(285.374161, 292.880078)"><path style="stroke:none" d="M 5.015625 0.171875 C 4.171875 0.171875 3.425781 0 2.78125 -0.34375 C 2.144531 -0.695312 1.648438 -1.207031 1.296875 -1.875 C 0.953125 -2.550781 0.78125 -3.363281 0.78125 -4.3125 C 0.78125 -5.257812 0.953125 -6.066406 1.296875 -6.734375 C 1.648438 -7.410156 2.144531 -7.921875 2.78125 -8.265625 C 3.425781 -8.609375 4.171875 -8.78125 5.015625 -8.78125 C 5.859375 -8.78125 6.597656 -8.609375 7.234375 -8.265625 C 7.867188 -7.921875 8.363281 -7.410156 8.71875 -6.734375 C 9.070312 -6.066406 9.25 -5.257812 9.25 -4.3125 C 9.25 -3.363281 9.070312 -2.550781 8.71875 -1.875 C 8.363281 -1.207031 7.867188 -0.695312 7.234375 -0.34375 C 6.597656 0 5.859375 0.171875 5.015625 0.171875 Z M 5.015625 -1.671875 C 6.347656 -1.671875 7.015625 -2.550781 7.015625 -4.3125 C 7.015625 -5.21875 6.84375 -5.882812 6.5 -6.3125 C 6.15625 -6.738281 5.660156 -6.953125 5.015625 -6.953125 C 3.671875 -6.953125 3 -6.070312 3 -4.3125 C 3 -2.550781 3.671875 -1.671875 5.015625 -1.671875 Z M 5.015625 -1.671875 "/></g></g><g style="fill:#000000;fill-opacity:1;"><g transform="translate(295.38734, 292.880078)"><path style="stroke:none" d="M 1.25 0 L 1.25 -8.625 L 3.328125 -8.625 L 3.328125 -7.359375 L 3.484375 -7.3125 C 4.023438 -8.289062 4.894531 -8.78125 6.09375 -8.78125 C 7.09375 -8.78125 7.820312 -8.507812 8.28125 -7.96875 C 8.75 -7.425781 8.984375 -6.640625 8.984375 -5.609375 L 8.984375 0 L 6.828125 0 L 6.828125 -5.34375 C 6.828125 -5.914062 6.710938 -6.328125 6.484375 -6.578125 C 6.253906 -6.828125 5.882812 -6.953125 5.375 -6.953125 C 4.757812 -6.953125 4.273438 -6.75 3.921875 -6.34375 C 3.578125 -5.945312 3.40625 -5.320312 3.40625 -4.46875 L 3.40625 0 Z M 1.25 0 "/></g></g></g></svg>