<svg xmlns="http://www.w3.org/2000/svg" xmlns:xlink="http://www.w3.org/1999/xlink" width="500" zoomAndPan="magnify" viewBox="0 0 375 374.999991" height="500" preserveAspectRatio="xMidYMid meet" version="1.2"><defs><clipPath id="9f0ca24456"><path d="M 112.5 112.5 L 262.5 112.5 L 262.5 262.5 L 112.5 262.5 Z M 112.5 112.5 "/></clipPath><clipPath id="9ad5faa5be"><path d="M 112.5 112.5 L 262.5 112.5 L 262.5 262.5 L 112.5 262.5 Z M 112.5 112.5 "/></clipPath><clipPath id="d53fca9340"><path d="M 112.5 187.5 C 112.5 228.921875 146.078125 262.5 187.5 262.5 C 228.921875 262.5 262.5 228.921875 262.5 187.5 C 262.5 146.078125 228.921875 112.5 187.5 112.5 C 146.078125 112.5 112.5 146.078125 112.5 187.5 "/></clipPath></defs><g id="b14a62b6f1"><g clip-rule="nonzero" clip-path="url(#9f0ca24456)"><path style=" stroke:none;fill-rule:nonzero;fill:#000000;fill-opacity:1;" d="M 112.5 187.5 C 112.5 228.921875 146.078125 262.5 187.5 262.5 C 228.921875 262.5 262.5 228.921875 262.5 187.5 C 262.5 146.078125 228.921875 112.5 187.5 112.5 C 146.078125 112.5 112.5 146.078125 112.5 187.5 "/></g><g clip-rule="nonzero" clip-path="url(#9ad5faa5be)"><g clip-rule="nonzero" clip-path="url(#d53fca9340)"><path style=" stroke:none;fill-rule:nonzero;fill:#000000;fill-opacity:1;" d="M 112.5 112.5 L 262.5 112.5 L 262.5 262.5 L 112.5 262.5 Z M 112.5 112.5 "/></g></g><path style=" stroke:none;fill-rule:nonzero;fill:#ffffff;fill-opacity:1;" d="M 215.105469 139.765625 L 201.328125 153.8125 L 201.328125 188.113281 L 229.375 188.113281 L 229.375 153.824219 Z M 215.347656 171.90625 C 217.90625 171.90625 219.980469 173.980469 219.980469 176.542969 C 219.980469 178.605469 218.617188 180.417969 216.636719 180.992188 L 216.636719 182.839844 C 216.636719 183.546875 216.0625 184.125 215.347656 184.125 C 214.640625 184.125 214.0625 183.550781 214.0625 182.839844 L 214.0625 180.992188 C 212.082031 180.417969 210.71875 178.605469 210.71875 176.546875 C 210.71875 175.835938 211.292969 175.257812 212.003906 175.257812 C 212.710938 175.257812 213.289062 175.832031 213.289062 176.546875 C 213.289062 177.683594 214.214844 178.605469 215.351562 178.605469 C 216.492188 178.605469 217.410156 177.679688 217.410156 176.542969 C 217.410156 175.40625 216.488281 174.484375 215.347656 174.484375 C 212.792969 174.484375 210.714844 172.417969 210.710938 169.859375 C 210.707031 167.792969 212.078125 165.972656 214.0625 165.402344 L 214.0625 163.554688 C 214.0625 162.847656 214.636719 162.269531 215.347656 162.269531 C 216.058594 162.269531 216.636719 162.84375 216.636719 163.554688 L 216.636719 165.402344 C 218.617188 165.972656 219.980469 167.785156 219.980469 169.847656 C 219.980469 170.558594 219.40625 171.132812 218.695312 171.132812 C 217.984375 171.132812 217.410156 170.558594 217.410156 169.847656 C 217.410156 168.707031 216.484375 167.785156 215.347656 167.785156 C 214.207031 167.785156 213.285156 168.707031 213.285156 169.847656 C 213.285156 170.988281 214.210938 171.90625 215.347656 171.90625 Z M 215.347656 156.824219 C 212.203125 156.824219 209.652344 154.277344 209.648438 151.128906 C 209.648438 147.984375 212.195312 145.433594 215.34375 145.429688 C 218.488281 145.429688 221.042969 147.976562 221.042969 151.125 C 221.042969 151.125 221.042969 151.125 221.042969 151.128906 C 221.042969 154.273438 218.5 156.824219 215.355469 156.832031 Z M 215.347656 156.824219 "/><path style=" stroke:none;fill-rule:nonzero;fill:#ffffff;fill-opacity:1;" d="M 218.476562 151.132812 C 218.476562 152.859375 217.078125 154.257812 215.351562 154.257812 C 213.625 154.257812 212.230469 152.859375 212.230469 151.132812 C 212.230469 149.40625 213.625 148.011719 215.351562 148.011719 C 215.355469 148.011719 215.355469 148.011719 215.359375 148.011719 C 217.078125 148.015625 218.472656 149.410156 218.476562 151.132812 Z M 218.476562 151.132812 "/><path style=" stroke:none;fill-rule:nonzero;fill:#ffffff;fill-opacity:1;" d="M 161.324219 139.765625 L 147.542969 153.8125 L 147.542969 188.113281 L 175.589844 188.113281 L 175.589844 153.824219 Z M 161.566406 171.90625 C 164.125 171.90625 166.199219 173.980469 166.199219 176.542969 C 166.199219 178.605469 164.832031 180.417969 162.851562 180.992188 L 162.851562 182.839844 C 162.851562 183.546875 162.277344 184.125 161.566406 184.125 C 160.855469 184.125 160.28125 183.550781 160.28125 182.839844 L 160.28125 180.992188 C 158.300781 180.417969 156.9375 178.605469 156.933594 176.546875 C 156.933594 175.835938 157.507812 175.257812 158.21875 175.257812 C 158.929688 175.257812 159.507812 175.832031 159.507812 176.546875 C 159.507812 177.683594 160.433594 178.605469 161.570312 178.605469 C 162.707031 178.605469 163.628906 177.679688 163.628906 176.542969 C 163.628906 175.40625 162.707031 174.484375 161.566406 174.484375 C 159.007812 174.484375 156.929688 172.417969 156.929688 169.859375 C 156.925781 167.792969 158.292969 165.972656 160.28125 165.402344 L 160.28125 163.554688 C 160.28125 162.847656 160.855469 162.269531 161.566406 162.269531 C 162.277344 162.269531 162.851562 162.84375 162.851562 163.554688 L 162.851562 165.402344 C 164.832031 165.972656 166.199219 167.785156 166.199219 169.847656 C 166.199219 170.558594 165.625 171.132812 164.910156 171.132812 C 164.199219 171.132812 163.625 170.558594 163.625 169.847656 C 163.625 168.707031 162.703125 167.785156 161.5625 167.785156 C 160.421875 167.785156 159.5 168.707031 159.5 169.847656 C 159.5 170.988281 160.429688 171.90625 161.566406 171.90625 Z M 161.566406 156.824219 C 158.417969 156.824219 155.867188 154.277344 155.863281 151.128906 C 155.863281 147.984375 158.414062 145.433594 161.558594 145.429688 C 164.707031 145.429688 167.257812 147.976562 167.261719 151.125 C 167.261719 151.125 167.261719 151.125 167.261719 151.128906 C 167.261719 154.273438 164.714844 156.824219 161.570312 156.832031 Z M 161.566406 156.824219 "/><path style=" stroke:none;fill-rule:nonzero;fill:#ffffff;fill-opacity:1;" d="M 164.6875 151.132812 C 164.6875 151.546875 164.609375 151.945312 164.453125 152.328125 C 164.292969 152.710938 164.066406 153.050781 163.773438 153.34375 C 163.480469 153.636719 163.144531 153.859375 162.761719 154.019531 C 162.378906 154.175781 161.980469 154.257812 161.566406 154.257812 C 161.152344 154.257812 160.753906 154.175781 160.371094 154.019531 C 159.988281 153.859375 159.652344 153.636719 159.359375 153.34375 C 159.066406 153.050781 158.839844 152.710938 158.679688 152.328125 C 158.523438 151.945312 158.441406 151.546875 158.441406 151.132812 C 158.441406 150.71875 158.523438 150.320312 158.679688 149.9375 C 158.839844 149.554688 159.066406 149.21875 159.359375 148.925781 C 159.652344 148.632812 159.988281 148.40625 160.371094 148.25 C 160.753906 148.089844 161.152344 148.011719 161.566406 148.011719 C 161.980469 148.011719 162.378906 148.089844 162.761719 148.25 C 163.144531 148.40625 163.480469 148.632812 163.773438 148.925781 C 164.066406 149.21875 164.292969 149.554688 164.453125 149.9375 C 164.609375 150.320312 164.6875 150.71875 164.6875 151.132812 Z M 164.6875 151.132812 "/><path style=" stroke:none;fill-rule:nonzero;fill:#ffffff;fill-opacity:1;" d="M 195.53125 170.585938 C 195.53125 170.667969 195.523438 170.75 195.511719 170.828125 C 195.503906 170.863281 195.496094 170.898438 195.484375 170.929688 C 195.449219 171.0625 195.394531 171.1875 195.3125 171.300781 C 195.289062 171.335938 195.265625 171.371094 195.238281 171.402344 C 195.210938 171.429688 195.183594 171.460938 195.152344 171.488281 C 195.148438 171.496094 195.140625 171.503906 195.132812 171.507812 L 191.230469 175.414062 C 190.726562 175.914062 189.910156 175.914062 189.410156 175.414062 C 188.910156 174.914062 188.910156 174.097656 189.410156 173.59375 L 191.136719 171.867188 L 182.664062 171.867188 C 181.957031 171.867188 181.378906 171.292969 181.378906 170.582031 C 181.378906 169.867188 181.953125 169.292969 182.664062 169.292969 L 191.136719 169.292969 L 189.410156 167.566406 C 188.925781 167.042969 188.957031 166.234375 189.476562 165.75 C 189.972656 165.289062 190.738281 165.289062 191.230469 165.753906 L 195.152344 169.675781 C 195.21875 169.738281 195.273438 169.8125 195.316406 169.890625 C 195.339844 169.925781 195.363281 169.960938 195.378906 169.996094 C 195.402344 170.035156 195.414062 170.070312 195.433594 170.109375 C 195.433594 170.113281 195.433594 170.117188 195.433594 170.121094 C 195.445312 170.15625 195.460938 170.191406 195.46875 170.230469 C 195.507812 170.347656 195.53125 170.464844 195.53125 170.585938 Z M 195.53125 170.585938 "/><path style=" stroke:none;fill-rule:nonzero;fill:#ffffff;fill-opacity:1;" d="M 195.53125 156.761719 C 195.53125 157.46875 194.957031 158.046875 194.246094 158.046875 L 185.769531 158.046875 L 187.503906 159.78125 C 188.03125 160.257812 188.066406 161.070312 187.589844 161.597656 C 187.113281 162.125 186.300781 162.164062 185.773438 161.6875 C 185.742188 161.65625 185.710938 161.628906 185.683594 161.59375 L 181.757812 157.667969 C 181.691406 157.605469 181.632812 157.53125 181.582031 157.457031 C 181.5625 157.425781 181.542969 157.394531 181.527344 157.363281 C 181.507812 157.328125 181.492188 157.292969 181.476562 157.257812 C 181.480469 157.253906 181.480469 157.246094 181.476562 157.246094 C 181.464844 157.210938 181.449219 157.171875 181.441406 157.136719 C 181.371094 156.894531 181.371094 156.640625 181.441406 156.402344 C 181.441406 156.367188 181.464844 156.332031 181.476562 156.292969 C 181.476562 156.289062 181.476562 156.285156 181.476562 156.28125 C 181.492188 156.242188 181.511719 156.207031 181.527344 156.171875 C 181.546875 156.140625 181.5625 156.113281 181.582031 156.082031 C 181.632812 156.003906 181.691406 155.933594 181.757812 155.867188 L 185.683594 151.933594 C 186.21875 151.46875 187.03125 151.523438 187.496094 152.058594 C 187.917969 152.542969 187.917969 153.265625 187.496094 153.746094 L 185.765625 155.480469 L 194.242188 155.480469 C 194.949219 155.476562 195.53125 156.050781 195.53125 156.757812 C 195.53125 156.757812 195.53125 156.757812 195.53125 156.761719 Z M 195.53125 156.761719 "/><path style=" stroke:none;fill-rule:nonzero;fill:#ffffff;fill-opacity:1;" d="M 231.683594 215.40625 L 231.660156 215.417969 C 228.628906 216.972656 202.011719 230.617188 201.101562 231.167969 C 196.742188 233.882812 190.351562 234.578125 182.113281 233.230469 C 175.117188 232.09375 168.53125 229.726562 165.230469 228.417969 C 163.597656 227.777344 158.890625 227.394531 156.59375 227.242188 L 156.59375 204.367188 L 159.488281 204.367188 C 163.34375 204.378906 167.148438 205.273438 170.605469 206.980469 C 173.898438 208.601562 183.992188 209.574219 185.707031 209.605469 L 198.121094 209.820312 C 200.671875 209.875 202.699219 211.984375 202.65625 214.535156 L 202.65625 215.027344 C 202.640625 215.660156 202.492188 216.285156 202.226562 216.859375 C 202.210938 216.894531 202.191406 216.933594 202.175781 216.972656 C 201.382812 218.578125 199.742188 219.582031 197.949219 219.554688 L 181.949219 219.289062 C 181.238281 219.277344 180.652344 219.84375 180.640625 220.554688 C 180.628906 221.265625 181.195312 221.851562 181.90625 221.863281 L 197.910156 222.128906 L 198.03125 222.128906 C 200.644531 222.125 203.058594 220.699219 204.324219 218.40625 L 227.25 206.722656 L 227.394531 206.652344 C 229.8125 205.46875 232.730469 206.46875 233.914062 208.886719 C 235.097656 211.304688 234.097656 214.222656 231.679688 215.40625 Z M 231.683594 215.40625 "/><path style=" stroke:none;fill-rule:nonzero;fill:#ffffff;fill-opacity:1;" d="M 154.019531 196.3125 L 154.019531 228.390625 C 154.015625 228.425781 154.015625 228.460938 154.019531 228.496094 L 154.019531 235.234375 L 140.589844 235.234375 L 140.589844 196.3125 Z M 154.019531 196.3125 "/><g style="fill:#000000;fill-opacity:1;"><g transform="translate(133.170771, 290.658819)"><path style="stroke:none" d="M 6.25 0.171875 C 5.195312 0.171875 4.269531 -0.046875 3.46875 -0.484375 C 2.664062 -0.929688 2.035156 -1.59375 1.578125 -2.46875 C 1.128906 -3.34375 0.90625 -4.425781 0.90625 -5.71875 C 0.90625 -7 1.128906 -8.078125 1.578125 -8.953125 C 2.035156 -9.835938 2.664062 -10.5 3.46875 -10.9375 C 4.269531 -11.375 5.195312 -11.59375 6.25 -11.59375 C 7.34375 -11.59375 8.273438 -11.375 9.046875 -10.9375 C 9.816406 -10.507812 10.363281 -9.859375 10.6875 -8.984375 L 9.046875 -7.96875 L 8.84375 -7.984375 C 8.601562 -8.578125 8.269531 -9 7.84375 -9.25 C 7.425781 -9.507812 6.894531 -9.640625 6.25 -9.640625 C 5.300781 -9.640625 4.5625 -9.328125 4.03125 -8.703125 C 3.5 -8.078125 3.234375 -7.082031 3.234375 -5.71875 C 3.234375 -4.351562 3.5 -3.359375 4.03125 -2.734375 C 4.5625 -2.109375 5.300781 -1.796875 6.25 -1.796875 C 7.726562 -1.796875 8.632812 -2.515625 8.96875 -3.953125 L 9.171875 -3.953125 L 10.828125 -3.09375 C 10.515625 -2.007812 9.976562 -1.191406 9.21875 -0.640625 C 8.46875 -0.0976562 7.476562 0.171875 6.25 0.171875 Z M 6.25 0.171875 "/></g></g><g style="fill:#000000;fill-opacity:1;"><g transform="translate(144.37116, 290.658819)"><path style="stroke:none" d="M 5.015625 0.171875 C 4.171875 0.171875 3.425781 0 2.78125 -0.34375 C 2.144531 -0.695312 1.648438 -1.207031 1.296875 -1.875 C 0.953125 -2.550781 0.78125 -3.363281 0.78125 -4.3125 C 0.78125 -5.257812 0.953125 -6.066406 1.296875 -6.734375 C 1.648438 -7.410156 2.144531 -7.921875 2.78125 -8.265625 C 3.425781 -8.609375 4.171875 -8.78125 5.015625 -8.78125 C 5.859375 -8.78125 6.597656 -8.609375 7.234375 -8.265625 C 7.867188 -7.921875 8.363281 -7.410156 8.71875 -6.734375 C 9.070312 -6.066406 9.25 -5.257812 9.25 -4.3125 C 9.25 -3.363281 9.070312 -2.550781 8.71875 -1.875 C 8.363281 -1.207031 7.867188 -0.695312 7.234375 -0.34375 C 6.597656 0 5.859375 0.171875 5.015625 0.171875 Z M 5.015625 -1.671875 C 6.347656 -1.671875 7.015625 -2.550781 7.015625 -4.3125 C 7.015625 -5.21875 6.84375 -5.882812 6.5 -6.3125 C 6.15625 -6.738281 5.660156 -6.953125 5.015625 -6.953125 C 3.671875 -6.953125 3 -6.070312 3 -4.3125 C 3 -2.550781 3.671875 -1.671875 5.015625 -1.671875 Z M 5.015625 -1.671875 "/></g></g><g style="fill:#000000;fill-opacity:1;"><g transform="translate(154.384339, 290.658819)"><path style="stroke:none" d="M 1.25 0 L 1.25 -8.625 L 3.328125 -8.625 L 3.328125 -7.46875 L 3.484375 -7.4375 C 3.765625 -7.894531 4.09375 -8.234375 4.46875 -8.453125 C 4.851562 -8.671875 5.335938 -8.78125 5.921875 -8.78125 C 6.578125 -8.78125 7.101562 -8.648438 7.5 -8.390625 C 7.894531 -8.140625 8.179688 -7.765625 8.359375 -7.265625 L 8.53125 -7.265625 C 8.789062 -7.785156 9.128906 -8.164062 9.546875 -8.40625 C 9.972656 -8.65625 10.5 -8.78125 11.125 -8.78125 C 12.90625 -8.78125 13.796875 -7.785156 13.796875 -5.796875 L 13.796875 0 L 11.640625 0 L 11.640625 -5.53125 C 11.640625 -6.03125 11.539062 -6.390625 11.34375 -6.609375 C 11.144531 -6.835938 10.828125 -6.953125 10.390625 -6.953125 C 9.203125 -6.953125 8.609375 -6.160156 8.609375 -4.578125 L 8.609375 0 L 6.4375 0 L 6.4375 -5.53125 C 6.4375 -6.03125 6.335938 -6.390625 6.140625 -6.609375 C 5.941406 -6.835938 5.625 -6.953125 5.1875 -6.953125 C 4.625 -6.953125 4.1875 -6.765625 3.875 -6.390625 C 3.5625 -6.023438 3.40625 -5.4375 3.40625 -4.625 L 3.40625 0 Z M 1.25 0 "/></g></g><g style="fill:#000000;fill-opacity:1;"><g transform="translate(169.286949, 290.658819)"><path style="stroke:none" d="M 1.25 3.5 L 1.25 -8.625 L 3.40625 -8.625 L 3.40625 -7.5 L 3.578125 -7.46875 C 3.828125 -7.90625 4.164062 -8.234375 4.59375 -8.453125 C 5.019531 -8.671875 5.519531 -8.78125 6.09375 -8.78125 C 6.789062 -8.78125 7.394531 -8.613281 7.90625 -8.28125 C 8.425781 -7.957031 8.832031 -7.460938 9.125 -6.796875 C 9.414062 -6.128906 9.5625 -5.300781 9.5625 -4.3125 C 9.5625 -3.320312 9.40625 -2.492188 9.09375 -1.828125 C 8.789062 -1.160156 8.367188 -0.660156 7.828125 -0.328125 C 7.285156 0.00390625 6.660156 0.171875 5.953125 0.171875 C 5.421875 0.171875 4.957031 0.0820312 4.5625 -0.09375 C 4.175781 -0.28125 3.847656 -0.566406 3.578125 -0.953125 L 3.40625 -0.921875 L 3.40625 3.5 Z M 5.359375 -1.671875 C 6.003906 -1.671875 6.492188 -1.878906 6.828125 -2.296875 C 7.160156 -2.722656 7.328125 -3.394531 7.328125 -4.3125 C 7.328125 -5.21875 7.160156 -5.882812 6.828125 -6.3125 C 6.492188 -6.738281 6.003906 -6.953125 5.359375 -6.953125 C 4.753906 -6.953125 4.273438 -6.734375 3.921875 -6.296875 C 3.566406 -5.859375 3.390625 -5.195312 3.390625 -4.3125 C 3.390625 -3.425781 3.566406 -2.765625 3.921875 -2.328125 C 4.273438 -1.890625 4.753906 -1.671875 5.359375 -1.671875 Z M 5.359375 -1.671875 "/></g></g><g style="fill:#000000;fill-opacity:1;"><g transform="translate(179.604747, 290.658819)"><path style="stroke:none" d="M 3.359375 0.171875 C 2.804688 0.171875 2.328125 0.0664062 1.921875 -0.140625 C 1.515625 -0.347656 1.203125 -0.644531 0.984375 -1.03125 C 0.765625 -1.425781 0.65625 -1.898438 0.65625 -2.453125 C 0.65625 -2.960938 0.765625 -3.390625 0.984375 -3.734375 C 1.203125 -4.085938 1.539062 -4.375 2 -4.59375 C 2.457031 -4.8125 3.054688 -4.984375 3.796875 -5.109375 C 4.316406 -5.191406 4.707031 -5.28125 4.96875 -5.375 C 5.238281 -5.476562 5.421875 -5.59375 5.515625 -5.71875 C 5.609375 -5.84375 5.65625 -6 5.65625 -6.1875 C 5.65625 -6.46875 5.554688 -6.679688 5.359375 -6.828125 C 5.171875 -6.972656 4.851562 -7.046875 4.40625 -7.046875 C 3.925781 -7.046875 3.46875 -6.9375 3.03125 -6.71875 C 2.601562 -6.507812 2.234375 -6.226562 1.921875 -5.875 L 1.765625 -5.875 L 0.859375 -7.25 C 1.296875 -7.726562 1.828125 -8.101562 2.453125 -8.375 C 3.085938 -8.644531 3.773438 -8.78125 4.515625 -8.78125 C 5.660156 -8.78125 6.488281 -8.535156 7 -8.046875 C 7.507812 -7.566406 7.765625 -6.882812 7.765625 -6 L 7.765625 -2.25 C 7.765625 -1.863281 7.929688 -1.671875 8.265625 -1.671875 C 8.398438 -1.671875 8.53125 -1.695312 8.65625 -1.75 L 8.765625 -1.71875 L 8.921875 -0.203125 C 8.796875 -0.128906 8.625 -0.0664062 8.40625 -0.015625 C 8.195312 0.0351562 7.96875 0.0625 7.71875 0.0625 C 7.195312 0.0625 6.789062 -0.0351562 6.5 -0.234375 C 6.21875 -0.429688 6.015625 -0.742188 5.890625 -1.171875 L 5.71875 -1.1875 C 5.300781 -0.28125 4.515625 0.171875 3.359375 0.171875 Z M 4.046875 -1.453125 C 4.546875 -1.453125 4.945312 -1.617188 5.25 -1.953125 C 5.550781 -2.296875 5.703125 -2.765625 5.703125 -3.359375 L 5.703125 -4.234375 L 5.546875 -4.265625 C 5.421875 -4.160156 5.25 -4.070312 5.03125 -4 C 4.820312 -3.9375 4.519531 -3.867188 4.125 -3.796875 C 3.65625 -3.722656 3.316406 -3.585938 3.109375 -3.390625 C 2.910156 -3.203125 2.8125 -2.9375 2.8125 -2.59375 C 2.8125 -2.21875 2.921875 -1.929688 3.140625 -1.734375 C 3.359375 -1.546875 3.660156 -1.453125 4.046875 -1.453125 Z M 4.046875 -1.453125 "/></g></g><g style="fill:#000000;fill-opacity:1;"><g transform="translate(188.688472, 290.658819)"><path style="stroke:none" d="M 1.25 0 L 1.25 -8.625 L 3.34375 -8.625 L 3.34375 -7.34375 L 3.515625 -7.3125 C 3.722656 -7.789062 3.992188 -8.140625 4.328125 -8.359375 C 4.671875 -8.585938 5.082031 -8.703125 5.5625 -8.703125 C 6.050781 -8.703125 6.425781 -8.617188 6.6875 -8.453125 L 6.3125 -6.578125 L 6.15625 -6.546875 C 6.007812 -6.609375 5.867188 -6.648438 5.734375 -6.671875 C 5.609375 -6.703125 5.453125 -6.71875 5.265625 -6.71875 C 4.660156 -6.71875 4.195312 -6.503906 3.875 -6.078125 C 3.5625 -5.648438 3.40625 -4.96875 3.40625 -4.03125 L 3.40625 0 Z M 1.25 0 "/></g></g><g style="fill:#000000;fill-opacity:1;"><g transform="translate(195.218115, 290.658819)"><path style="stroke:none" d="M 8.515625 -3.828125 L 2.984375 -3.828125 C 3.046875 -3.078125 3.257812 -2.53125 3.625 -2.1875 C 3.988281 -1.84375 4.484375 -1.671875 5.109375 -1.671875 C 5.609375 -1.671875 6.007812 -1.765625 6.3125 -1.953125 C 6.625 -2.140625 6.875 -2.421875 7.0625 -2.796875 L 7.21875 -2.796875 L 8.65625 -1.875 C 8.375 -1.269531 7.945312 -0.773438 7.375 -0.390625 C 6.8125 -0.015625 6.054688 0.171875 5.109375 0.171875 C 4.222656 0.171875 3.453125 0 2.796875 -0.34375 C 2.148438 -0.6875 1.648438 -1.191406 1.296875 -1.859375 C 0.953125 -2.523438 0.78125 -3.34375 0.78125 -4.3125 C 0.78125 -5.289062 0.960938 -6.113281 1.328125 -6.78125 C 1.703125 -7.457031 2.203125 -7.957031 2.828125 -8.28125 C 3.460938 -8.613281 4.171875 -8.78125 4.953125 -8.78125 C 6.171875 -8.78125 7.101562 -8.457031 7.75 -7.8125 C 8.40625 -7.164062 8.734375 -6.21875 8.734375 -4.96875 C 8.734375 -4.519531 8.71875 -4.171875 8.6875 -3.921875 Z M 6.65625 -5.21875 C 6.632812 -5.875 6.484375 -6.351562 6.203125 -6.65625 C 5.921875 -6.957031 5.503906 -7.109375 4.953125 -7.109375 C 3.859375 -7.109375 3.21875 -6.476562 3.03125 -5.21875 Z M 6.65625 -5.21875 "/></g></g><g style="fill:#000000;fill-opacity:1;"><g transform="translate(204.583021, 290.658819)"><path style="stroke:none" d=""/></g></g><g style="fill:#000000;fill-opacity:1;"><g transform="translate(208.355542, 290.658819)"><path style="stroke:none" d="M 5.90625 -11.421875 C 6.71875 -11.421875 7.414062 -11.269531 8 -10.96875 C 8.582031 -10.675781 9.019531 -10.257812 9.3125 -9.71875 C 9.613281 -9.175781 9.765625 -8.550781 9.765625 -7.84375 C 9.765625 -7.125 9.613281 -6.492188 9.3125 -5.953125 C 9.019531 -5.421875 8.582031 -5.003906 8 -4.703125 C 7.414062 -4.410156 6.71875 -4.265625 5.90625 -4.265625 L 3.75 -4.265625 L 3.75 0 L 1.484375 0 L 1.484375 -11.421875 Z M 5.609375 -6.046875 C 6.859375 -6.046875 7.484375 -6.644531 7.484375 -7.84375 C 7.484375 -9.039062 6.859375 -9.640625 5.609375 -9.640625 L 3.75 -9.640625 L 3.75 -6.046875 Z M 5.609375 -6.046875 "/></g></g><g style="fill:#000000;fill-opacity:1;"><g transform="translate(218.563969, 290.658819)"><path style="stroke:none" d="M 1.25 0 L 1.25 -8.625 L 3.34375 -8.625 L 3.34375 -7.34375 L 3.515625 -7.3125 C 3.722656 -7.789062 3.992188 -8.140625 4.328125 -8.359375 C 4.671875 -8.585938 5.082031 -8.703125 5.5625 -8.703125 C 6.050781 -8.703125 6.425781 -8.617188 6.6875 -8.453125 L 6.3125 -6.578125 L 6.15625 -6.546875 C 6.007812 -6.609375 5.867188 -6.648438 5.734375 -6.671875 C 5.609375 -6.703125 5.453125 -6.71875 5.265625 -6.71875 C 4.660156 -6.71875 4.195312 -6.503906 3.875 -6.078125 C 3.5625 -5.648438 3.40625 -4.96875 3.40625 -4.03125 L 3.40625 0 Z M 1.25 0 "/></g></g><g style="fill:#000000;fill-opacity:1;"><g transform="translate(225.320137, 290.658819)"><path style="stroke:none" d="M 2.328125 -9.65625 C 1.929688 -9.65625 1.609375 -9.769531 1.359375 -10 C 1.117188 -10.238281 1 -10.546875 1 -10.921875 C 1 -11.296875 1.117188 -11.597656 1.359375 -11.828125 C 1.609375 -12.066406 1.929688 -12.1875 2.328125 -12.1875 C 2.585938 -12.1875 2.816406 -12.128906 3.015625 -12.015625 C 3.222656 -11.910156 3.378906 -11.765625 3.484375 -11.578125 C 3.597656 -11.390625 3.65625 -11.171875 3.65625 -10.921875 C 3.65625 -10.679688 3.597656 -10.460938 3.484375 -10.265625 C 3.378906 -10.078125 3.222656 -9.925781 3.015625 -9.8125 C 2.816406 -9.707031 2.585938 -9.65625 2.328125 -9.65625 Z M 1.25 0 L 1.25 -8.625 L 3.40625 -8.625 L 3.40625 0 Z M 1.25 0 "/></g></g><g style="fill:#000000;fill-opacity:1;"><g transform="translate(229.959629, 290.658819)"><path style="stroke:none" d="M 5.03125 0.171875 C 4.195312 0.171875 3.457031 0 2.8125 -0.34375 C 2.175781 -0.695312 1.675781 -1.207031 1.3125 -1.875 C 0.957031 -2.550781 0.78125 -3.363281 0.78125 -4.3125 C 0.78125 -5.257812 0.957031 -6.066406 1.3125 -6.734375 C 1.675781 -7.410156 2.175781 -7.921875 2.8125 -8.265625 C 3.445312 -8.609375 4.171875 -8.78125 4.984375 -8.78125 C 6.804688 -8.78125 7.972656 -8.125 8.484375 -6.8125 L 7 -5.75 L 6.828125 -5.75 C 6.648438 -6.15625 6.421875 -6.457031 6.140625 -6.65625 C 5.859375 -6.851562 5.472656 -6.953125 4.984375 -6.953125 C 4.359375 -6.953125 3.867188 -6.734375 3.515625 -6.296875 C 3.171875 -5.867188 3 -5.207031 3 -4.3125 C 3 -3.425781 3.175781 -2.765625 3.53125 -2.328125 C 3.882812 -1.890625 4.382812 -1.671875 5.03125 -1.671875 C 5.5 -1.671875 5.894531 -1.796875 6.21875 -2.046875 C 6.539062 -2.304688 6.773438 -2.671875 6.921875 -3.140625 L 7.078125 -3.15625 L 8.625 -2.3125 C 8.40625 -1.582031 8 -0.984375 7.40625 -0.515625 C 6.8125 -0.0546875 6.019531 0.171875 5.03125 0.171875 Z M 5.03125 0.171875 "/></g></g><g style="fill:#000000;fill-opacity:1;"><g transform="translate(238.840278, 290.658819)"><path style="stroke:none" d="M 8.515625 -3.828125 L 2.984375 -3.828125 C 3.046875 -3.078125 3.257812 -2.53125 3.625 -2.1875 C 3.988281 -1.84375 4.484375 -1.671875 5.109375 -1.671875 C 5.609375 -1.671875 6.007812 -1.765625 6.3125 -1.953125 C 6.625 -2.140625 6.875 -2.421875 7.0625 -2.796875 L 7.21875 -2.796875 L 8.65625 -1.875 C 8.375 -1.269531 7.945312 -0.773438 7.375 -0.390625 C 6.8125 -0.015625 6.054688 0.171875 5.109375 0.171875 C 4.222656 0.171875 3.453125 0 2.796875 -0.34375 C 2.148438 -0.6875 1.648438 -1.191406 1.296875 -1.859375 C 0.953125 -2.523438 0.78125 -3.34375 0.78125 -4.3125 C 0.78125 -5.289062 0.960938 -6.113281 1.328125 -6.78125 C 1.703125 -7.457031 2.203125 -7.957031 2.828125 -8.28125 C 3.460938 -8.613281 4.171875 -8.78125 4.953125 -8.78125 C 6.171875 -8.78125 7.101562 -8.457031 7.75 -7.8125 C 8.40625 -7.164062 8.734375 -6.21875 8.734375 -4.96875 C 8.734375 -4.519531 8.71875 -4.171875 8.6875 -3.921875 Z M 6.65625 -5.21875 C 6.632812 -5.875 6.484375 -6.351562 6.203125 -6.65625 C 5.921875 -6.957031 5.503906 -7.109375 4.953125 -7.109375 C 3.859375 -7.109375 3.21875 -6.476562 3.03125 -5.21875 Z M 6.65625 -5.21875 "/></g></g><g style="fill:#000000;fill-opacity:1;"><g transform="translate(248.205184, 290.658819)"><path style="stroke:none" d="M 4.03125 0.171875 C 3.445312 0.171875 2.910156 0.101562 2.421875 -0.03125 C 1.929688 -0.175781 1.507812 -0.367188 1.15625 -0.609375 C 0.8125 -0.859375 0.554688 -1.140625 0.390625 -1.453125 L 1.59375 -2.75 L 1.765625 -2.75 C 2.046875 -2.363281 2.378906 -2.070312 2.765625 -1.875 C 3.160156 -1.6875 3.585938 -1.59375 4.046875 -1.59375 C 4.472656 -1.59375 4.789062 -1.664062 5 -1.8125 C 5.21875 -1.96875 5.328125 -2.1875 5.328125 -2.46875 C 5.328125 -2.6875 5.25 -2.867188 5.09375 -3.015625 C 4.9375 -3.160156 4.6875 -3.273438 4.34375 -3.359375 L 3.203125 -3.640625 C 2.347656 -3.835938 1.722656 -4.144531 1.328125 -4.5625 C 0.941406 -4.988281 0.75 -5.523438 0.75 -6.171875 C 0.75 -6.703125 0.882812 -7.164062 1.15625 -7.5625 C 1.425781 -7.957031 1.8125 -8.257812 2.3125 -8.46875 C 2.8125 -8.675781 3.390625 -8.78125 4.046875 -8.78125 C 4.828125 -8.78125 5.472656 -8.664062 5.984375 -8.4375 C 6.492188 -8.21875 6.890625 -7.921875 7.171875 -7.546875 L 6.015625 -6.296875 L 5.859375 -6.296875 C 5.617188 -6.566406 5.347656 -6.765625 5.046875 -6.890625 C 4.753906 -7.015625 4.421875 -7.078125 4.046875 -7.078125 C 3.191406 -7.078125 2.765625 -6.8125 2.765625 -6.28125 C 2.765625 -6.0625 2.84375 -5.878906 3 -5.734375 C 3.164062 -5.597656 3.445312 -5.484375 3.84375 -5.390625 L 4.90625 -5.15625 C 5.78125 -4.96875 6.421875 -4.664062 6.828125 -4.25 C 7.234375 -3.84375 7.4375 -3.289062 7.4375 -2.59375 C 7.4375 -2.039062 7.300781 -1.554688 7.03125 -1.140625 C 6.757812 -0.722656 6.367188 -0.398438 5.859375 -0.171875 C 5.347656 0.0546875 4.738281 0.171875 4.03125 0.171875 Z M 4.03125 0.171875 "/></g></g></g></svg>