<svg xmlns="http://www.w3.org/2000/svg" xmlns:xlink="http://www.w3.org/1999/xlink" width="500" zoomAndPan="magnify" viewBox="0 0 375 374.999991" height="500" preserveAspectRatio="xMidYMid meet" version="1.2"><defs><clipPath id="612b45927d"><path d="M 202 202 L 262.5 202 L 262.5 262.5 L 202 262.5 Z M 202 202 "/></clipPath><clipPath id="aafd0d5c78"><path d="M 112.5 112.5 L 218 112.5 L 218 218 L 112.5 218 Z M 112.5 112.5 "/></clipPath><clipPath id="6fb1657ddf"><path d="M 128.011719 127.941406 L 201.511719 127.941406 L 201.511719 201.441406 L 128.011719 201.441406 Z M 128.011719 127.941406 "/></clipPath></defs><g id="62ca7e75ce"><g clip-rule="nonzero" clip-path="url(#612b45927d)"><path style=" stroke:none;fill-rule:nonzero;fill:#000000;fill-opacity:1;" d="M 262.5 247.5 L 247.5 262.5 L 202.5 217.5 L 202.5 202.5 L 217.5 202.5 Z M 262.5 247.5 "/></g><g clip-rule="nonzero" clip-path="url(#aafd0d5c78)"><path style=" stroke:none;fill-rule:nonzero;fill:#000000;fill-opacity:1;" d="M 165 217.5 C 135.75 217.5 112.5 194.25 112.5 165 C 112.5 135.75 135.75 112.5 165 112.5 C 194.25 112.5 217.5 135.75 217.5 165 C 217.5 194.25 194.25 217.5 165 217.5 Z M 165 127.5 C 144 127.5 127.5 144 127.5 165 C 127.5 186 144 202.5 165 202.5 C 186 202.5 202.5 186 202.5 165 C 202.5 144 186 127.5 165 127.5 Z M 165 127.5 "/></g><path style=" stroke:none;fill-rule:nonzero;fill:#000000;fill-opacity:1;" d="M 192.179688 198.007812 L 197.480469 192.707031 L 216.042969 211.269531 L 210.738281 216.574219 Z M 192.179688 198.007812 "/><g clip-rule="nonzero" clip-path="url(#6fb1657ddf)"><path style=" stroke:none;fill-rule:nonzero;fill:#000000;fill-opacity:1;" d="M 197.449219 160.628906 L 168.828125 160.628906 L 168.828125 132.007812 C 168.828125 129.757812 167.011719 127.941406 164.761719 127.941406 C 162.515625 127.941406 160.699219 129.757812 160.699219 132.007812 L 160.699219 160.628906 L 132.078125 160.628906 C 129.828125 160.628906 128.011719 162.445312 128.011719 164.691406 C 128.011719 166.941406 129.828125 168.757812 132.078125 168.757812 L 160.699219 168.757812 L 160.699219 197.378906 C 160.699219 199.628906 162.515625 201.441406 164.761719 201.441406 C 167.011719 201.441406 168.828125 199.628906 168.828125 197.378906 L 168.828125 168.757812 L 197.449219 168.757812 C 199.699219 168.757812 201.511719 166.941406 201.511719 164.691406 C 201.511719 162.445312 199.699219 160.628906 197.449219 160.628906 Z M 197.449219 160.628906 "/></g><g style="fill:#000000;fill-opacity:1;"><g transform="translate(122.704098, 282.998799)"><path style="stroke:none" d="M 5.0625 0.171875 C 4.269531 0.171875 3.566406 0.0703125 2.953125 -0.125 C 2.335938 -0.320312 1.820312 -0.578125 1.40625 -0.890625 C 1 -1.210938 0.6875 -1.566406 0.46875 -1.953125 L 1.703125 -3.46875 L 1.90625 -3.46875 C 2.25 -2.957031 2.679688 -2.550781 3.203125 -2.25 C 3.734375 -1.945312 4.351562 -1.796875 5.0625 -1.796875 C 5.664062 -1.796875 6.117188 -1.921875 6.421875 -2.171875 C 6.734375 -2.429688 6.890625 -2.785156 6.890625 -3.234375 C 6.890625 -3.503906 6.835938 -3.726562 6.734375 -3.90625 C 6.640625 -4.09375 6.476562 -4.25 6.25 -4.375 C 6.019531 -4.507812 5.710938 -4.625 5.328125 -4.71875 L 3.859375 -5.046875 C 2.828125 -5.285156 2.0625 -5.675781 1.5625 -6.21875 C 1.0625 -6.757812 0.8125 -7.46875 0.8125 -8.34375 C 0.8125 -8.988281 0.972656 -9.554688 1.296875 -10.046875 C 1.617188 -10.535156 2.085938 -10.914062 2.703125 -11.1875 C 3.316406 -11.457031 4.054688 -11.59375 4.921875 -11.59375 C 5.796875 -11.59375 6.546875 -11.472656 7.171875 -11.234375 C 7.804688 -11.003906 8.335938 -10.648438 8.765625 -10.171875 L 7.65625 -8.640625 L 7.453125 -8.640625 C 7.128906 -8.984375 6.757812 -9.238281 6.34375 -9.40625 C 5.925781 -9.570312 5.453125 -9.65625 4.921875 -9.65625 C 4.296875 -9.65625 3.820312 -9.546875 3.5 -9.328125 C 3.175781 -9.109375 3.015625 -8.804688 3.015625 -8.421875 C 3.015625 -8.066406 3.128906 -7.78125 3.359375 -7.5625 C 3.585938 -7.351562 3.976562 -7.1875 4.53125 -7.0625 L 6.03125 -6.75 C 7.144531 -6.519531 7.953125 -6.125 8.453125 -5.5625 C 8.953125 -5 9.203125 -4.269531 9.203125 -3.375 C 9.203125 -2.65625 9.046875 -2.03125 8.734375 -1.5 C 8.429688 -0.976562 7.96875 -0.566406 7.34375 -0.265625 C 6.726562 0.0234375 5.96875 0.171875 5.0625 0.171875 Z M 5.0625 0.171875 "/></g></g><g style="fill:#000000;fill-opacity:1;"><g transform="translate(132.514202, 282.998799)"><path style="stroke:none" d="M 8.515625 -3.828125 L 2.984375 -3.828125 C 3.046875 -3.078125 3.257812 -2.53125 3.625 -2.1875 C 3.988281 -1.84375 4.484375 -1.671875 5.109375 -1.671875 C 5.609375 -1.671875 6.007812 -1.765625 6.3125 -1.953125 C 6.625 -2.140625 6.875 -2.421875 7.0625 -2.796875 L 7.21875 -2.796875 L 8.65625 -1.875 C 8.375 -1.269531 7.945312 -0.773438 7.375 -0.390625 C 6.8125 -0.015625 6.054688 0.171875 5.109375 0.171875 C 4.222656 0.171875 3.453125 0 2.796875 -0.34375 C 2.148438 -0.6875 1.648438 -1.191406 1.296875 -1.859375 C 0.953125 -2.523438 0.78125 -3.34375 0.78125 -4.3125 C 0.78125 -5.289062 0.960938 -6.113281 1.328125 -6.78125 C 1.703125 -7.457031 2.203125 -7.957031 2.828125 -8.28125 C 3.460938 -8.613281 4.171875 -8.78125 4.953125 -8.78125 C 6.171875 -8.78125 7.101562 -8.457031 7.75 -7.8125 C 8.40625 -7.164062 8.734375 -6.21875 8.734375 -4.96875 C 8.734375 -4.519531 8.71875 -4.171875 8.6875 -3.921875 Z M 6.65625 -5.21875 C 6.632812 -5.875 6.484375 -6.351562 6.203125 -6.65625 C 5.921875 -6.957031 5.503906 -7.109375 4.953125 -7.109375 C 3.859375 -7.109375 3.21875 -6.476562 3.03125 -5.21875 Z M 6.65625 -5.21875 "/></g></g><g style="fill:#000000;fill-opacity:1;"><g transform="translate(141.879107, 282.998799)"><path style="stroke:none" d="M 3.359375 0.171875 C 2.804688 0.171875 2.328125 0.0664062 1.921875 -0.140625 C 1.515625 -0.347656 1.203125 -0.644531 0.984375 -1.03125 C 0.765625 -1.425781 0.65625 -1.898438 0.65625 -2.453125 C 0.65625 -2.960938 0.765625 -3.390625 0.984375 -3.734375 C 1.203125 -4.085938 1.539062 -4.375 2 -4.59375 C 2.457031 -4.8125 3.054688 -4.984375 3.796875 -5.109375 C 4.316406 -5.191406 4.707031 -5.28125 4.96875 -5.375 C 5.238281 -5.476562 5.421875 -5.59375 5.515625 -5.71875 C 5.609375 -5.84375 5.65625 -6 5.65625 -6.1875 C 5.65625 -6.46875 5.554688 -6.679688 5.359375 -6.828125 C 5.171875 -6.972656 4.851562 -7.046875 4.40625 -7.046875 C 3.925781 -7.046875 3.46875 -6.9375 3.03125 -6.71875 C 2.601562 -6.507812 2.234375 -6.226562 1.921875 -5.875 L 1.765625 -5.875 L 0.859375 -7.25 C 1.296875 -7.726562 1.828125 -8.101562 2.453125 -8.375 C 3.085938 -8.644531 3.773438 -8.78125 4.515625 -8.78125 C 5.660156 -8.78125 6.488281 -8.535156 7 -8.046875 C 7.507812 -7.566406 7.765625 -6.882812 7.765625 -6 L 7.765625 -2.25 C 7.765625 -1.863281 7.929688 -1.671875 8.265625 -1.671875 C 8.398438 -1.671875 8.53125 -1.695312 8.65625 -1.75 L 8.765625 -1.71875 L 8.921875 -0.203125 C 8.796875 -0.128906 8.625 -0.0664062 8.40625 -0.015625 C 8.195312 0.0351562 7.96875 0.0625 7.71875 0.0625 C 7.195312 0.0625 6.789062 -0.0351562 6.5 -0.234375 C 6.21875 -0.429688 6.015625 -0.742188 5.890625 -1.171875 L 5.71875 -1.1875 C 5.300781 -0.28125 4.515625 0.171875 3.359375 0.171875 Z M 4.046875 -1.453125 C 4.546875 -1.453125 4.945312 -1.617188 5.25 -1.953125 C 5.550781 -2.296875 5.703125 -2.765625 5.703125 -3.359375 L 5.703125 -4.234375 L 5.546875 -4.265625 C 5.421875 -4.160156 5.25 -4.070312 5.03125 -4 C 4.820312 -3.9375 4.519531 -3.867188 4.125 -3.796875 C 3.65625 -3.722656 3.316406 -3.585938 3.109375 -3.390625 C 2.910156 -3.203125 2.8125 -2.9375 2.8125 -2.59375 C 2.8125 -2.21875 2.921875 -1.929688 3.140625 -1.734375 C 3.359375 -1.546875 3.660156 -1.453125 4.046875 -1.453125 Z M 4.046875 -1.453125 "/></g></g><g style="fill:#000000;fill-opacity:1;"><g transform="translate(150.962832, 282.998799)"><path style="stroke:none" d="M 1.25 0 L 1.25 -8.625 L 3.34375 -8.625 L 3.34375 -7.34375 L 3.515625 -7.3125 C 3.722656 -7.789062 3.992188 -8.140625 4.328125 -8.359375 C 4.671875 -8.585938 5.082031 -8.703125 5.5625 -8.703125 C 6.050781 -8.703125 6.425781 -8.617188 6.6875 -8.453125 L 6.3125 -6.578125 L 6.15625 -6.546875 C 6.007812 -6.609375 5.867188 -6.648438 5.734375 -6.671875 C 5.609375 -6.703125 5.453125 -6.71875 5.265625 -6.71875 C 4.660156 -6.71875 4.195312 -6.503906 3.875 -6.078125 C 3.5625 -5.648438 3.40625 -4.96875 3.40625 -4.03125 L 3.40625 0 Z M 1.25 0 "/></g></g><g style="fill:#000000;fill-opacity:1;"><g transform="translate(157.492475, 282.998799)"><path style="stroke:none" d="M 5.03125 0.171875 C 4.195312 0.171875 3.457031 0 2.8125 -0.34375 C 2.175781 -0.695312 1.675781 -1.207031 1.3125 -1.875 C 0.957031 -2.550781 0.78125 -3.363281 0.78125 -4.3125 C 0.78125 -5.257812 0.957031 -6.066406 1.3125 -6.734375 C 1.675781 -7.410156 2.175781 -7.921875 2.8125 -8.265625 C 3.445312 -8.609375 4.171875 -8.78125 4.984375 -8.78125 C 6.804688 -8.78125 7.972656 -8.125 8.484375 -6.8125 L 7 -5.75 L 6.828125 -5.75 C 6.648438 -6.15625 6.421875 -6.457031 6.140625 -6.65625 C 5.859375 -6.851562 5.472656 -6.953125 4.984375 -6.953125 C 4.359375 -6.953125 3.867188 -6.734375 3.515625 -6.296875 C 3.171875 -5.867188 3 -5.207031 3 -4.3125 C 3 -3.425781 3.175781 -2.765625 3.53125 -2.328125 C 3.882812 -1.890625 4.382812 -1.671875 5.03125 -1.671875 C 5.5 -1.671875 5.894531 -1.796875 6.21875 -2.046875 C 6.539062 -2.304688 6.773438 -2.671875 6.921875 -3.140625 L 7.078125 -3.15625 L 8.625 -2.3125 C 8.40625 -1.582031 8 -0.984375 7.40625 -0.515625 C 6.8125 -0.0546875 6.019531 0.171875 5.03125 0.171875 Z M 5.03125 0.171875 "/></g></g><g style="fill:#000000;fill-opacity:1;"><g transform="translate(166.373124, 282.998799)"><path style="stroke:none" d="M 1.25 0 L 1.25 -12.078125 L 3.40625 -12.078125 L 3.40625 -7.5 L 3.578125 -7.46875 C 3.859375 -7.882812 4.207031 -8.207031 4.625 -8.4375 C 5.039062 -8.664062 5.546875 -8.78125 6.140625 -8.78125 C 8.035156 -8.78125 8.984375 -7.703125 8.984375 -5.546875 L 8.984375 0 L 6.828125 0 L 6.828125 -5.28125 C 6.828125 -5.863281 6.707031 -6.285156 6.46875 -6.546875 C 6.238281 -6.816406 5.875 -6.953125 5.375 -6.953125 C 4.769531 -6.953125 4.289062 -6.75 3.9375 -6.34375 C 3.582031 -5.945312 3.40625 -5.320312 3.40625 -4.46875 L 3.40625 0 Z M 1.25 0 "/></g></g><g style="fill:#000000;fill-opacity:1;"><g transform="translate(180.236931, 282.998799)"><path style="stroke:none" d="M 3.5625 0 L 1.484375 0 L 1.484375 -11.421875 L 4.4375 -11.421875 L 7.328125 -3.03125 L 7.5 -3.03125 L 10.375 -11.421875 L 13.25 -11.421875 L 13.25 0 L 11.109375 0 L 11.109375 -7.546875 L 10.921875 -7.578125 L 8.28125 0 L 6.390625 0 L 3.75 -7.578125 L 3.5625 -7.546875 Z M 3.5625 0 "/></g></g><g style="fill:#000000;fill-opacity:1;"><g transform="translate(194.975524, 282.998799)"><path style="stroke:none" d="M 8.515625 -3.828125 L 2.984375 -3.828125 C 3.046875 -3.078125 3.257812 -2.53125 3.625 -2.1875 C 3.988281 -1.84375 4.484375 -1.671875 5.109375 -1.671875 C 5.609375 -1.671875 6.007812 -1.765625 6.3125 -1.953125 C 6.625 -2.140625 6.875 -2.421875 7.0625 -2.796875 L 7.21875 -2.796875 L 8.65625 -1.875 C 8.375 -1.269531 7.945312 -0.773438 7.375 -0.390625 C 6.8125 -0.015625 6.054688 0.171875 5.109375 0.171875 C 4.222656 0.171875 3.453125 0 2.796875 -0.34375 C 2.148438 -0.6875 1.648438 -1.191406 1.296875 -1.859375 C 0.953125 -2.523438 0.78125 -3.34375 0.78125 -4.3125 C 0.78125 -5.289062 0.960938 -6.113281 1.328125 -6.78125 C 1.703125 -7.457031 2.203125 -7.957031 2.828125 -8.28125 C 3.460938 -8.613281 4.171875 -8.78125 4.953125 -8.78125 C 6.171875 -8.78125 7.101562 -8.457031 7.75 -7.8125 C 8.40625 -7.164062 8.734375 -6.21875 8.734375 -4.96875 C 8.734375 -4.519531 8.71875 -4.171875 8.6875 -3.921875 Z M 6.65625 -5.21875 C 6.632812 -5.875 6.484375 -6.351562 6.203125 -6.65625 C 5.921875 -6.957031 5.503906 -7.109375 4.953125 -7.109375 C 3.859375 -7.109375 3.21875 -6.476562 3.03125 -5.21875 Z M 6.65625 -5.21875 "/></g></g><g style="fill:#000000;fill-opacity:1;"><g transform="translate(204.34043, 282.998799)"><path style="stroke:none" d="M 4.265625 0.171875 C 3.578125 0.171875 2.972656 0.00390625 2.453125 -0.328125 C 1.929688 -0.660156 1.519531 -1.160156 1.21875 -1.828125 C 0.925781 -2.503906 0.78125 -3.332031 0.78125 -4.3125 C 0.78125 -5.289062 0.929688 -6.113281 1.234375 -6.78125 C 1.535156 -7.457031 1.957031 -7.957031 2.5 -8.28125 C 3.039062 -8.613281 3.664062 -8.78125 4.375 -8.78125 C 4.90625 -8.78125 5.367188 -8.6875 5.765625 -8.5 C 6.160156 -8.320312 6.492188 -8.035156 6.765625 -7.640625 L 6.921875 -7.6875 L 6.921875 -12.078125 L 9.09375 -12.078125 L 9.09375 0 L 6.921875 0 L 6.921875 -1.125 L 6.765625 -1.15625 C 6.523438 -0.75 6.195312 -0.425781 5.78125 -0.1875 C 5.363281 0.0507812 4.859375 0.171875 4.265625 0.171875 Z M 4.96875 -1.671875 C 5.570312 -1.671875 6.050781 -1.890625 6.40625 -2.328125 C 6.757812 -2.765625 6.9375 -3.425781 6.9375 -4.3125 C 6.9375 -5.195312 6.757812 -5.859375 6.40625 -6.296875 C 6.050781 -6.734375 5.570312 -6.953125 4.96875 -6.953125 C 4.332031 -6.953125 3.84375 -6.738281 3.5 -6.3125 C 3.164062 -5.882812 3 -5.21875 3 -4.3125 C 3 -3.40625 3.164062 -2.738281 3.5 -2.3125 C 3.84375 -1.882812 4.332031 -1.671875 4.96875 -1.671875 Z M 4.96875 -1.671875 "/></g></g><g style="fill:#000000;fill-opacity:1;"><g transform="translate(214.666033, 282.998799)"><path style="stroke:none" d="M 2.328125 -9.65625 C 1.929688 -9.65625 1.609375 -9.769531 1.359375 -10 C 1.117188 -10.238281 1 -10.546875 1 -10.921875 C 1 -11.296875 1.117188 -11.597656 1.359375 -11.828125 C 1.609375 -12.066406 1.929688 -12.1875 2.328125 -12.1875 C 2.585938 -12.1875 2.816406 -12.128906 3.015625 -12.015625 C 3.222656 -11.910156 3.378906 -11.765625 3.484375 -11.578125 C 3.597656 -11.390625 3.65625 -11.171875 3.65625 -10.921875 C 3.65625 -10.679688 3.597656 -10.460938 3.484375 -10.265625 C 3.378906 -10.078125 3.222656 -9.925781 3.015625 -9.8125 C 2.816406 -9.707031 2.585938 -9.65625 2.328125 -9.65625 Z M 1.25 0 L 1.25 -8.625 L 3.40625 -8.625 L 3.40625 0 Z M 1.25 0 "/></g></g><g style="fill:#000000;fill-opacity:1;"><g transform="translate(219.305525, 282.998799)"><path style="stroke:none" d="M 5.03125 0.171875 C 4.195312 0.171875 3.457031 0 2.8125 -0.34375 C 2.175781 -0.695312 1.675781 -1.207031 1.3125 -1.875 C 0.957031 -2.550781 0.78125 -3.363281 0.78125 -4.3125 C 0.78125 -5.257812 0.957031 -6.066406 1.3125 -6.734375 C 1.675781 -7.410156 2.175781 -7.921875 2.8125 -8.265625 C 3.445312 -8.609375 4.171875 -8.78125 4.984375 -8.78125 C 6.804688 -8.78125 7.972656 -8.125 8.484375 -6.8125 L 7 -5.75 L 6.828125 -5.75 C 6.648438 -6.15625 6.421875 -6.457031 6.140625 -6.65625 C 5.859375 -6.851562 5.472656 -6.953125 4.984375 -6.953125 C 4.359375 -6.953125 3.867188 -6.734375 3.515625 -6.296875 C 3.171875 -5.867188 3 -5.207031 3 -4.3125 C 3 -3.425781 3.175781 -2.765625 3.53125 -2.328125 C 3.882812 -1.890625 4.382812 -1.671875 5.03125 -1.671875 C 5.5 -1.671875 5.894531 -1.796875 6.21875 -2.046875 C 6.539062 -2.304688 6.773438 -2.671875 6.921875 -3.140625 L 7.078125 -3.15625 L 8.625 -2.3125 C 8.40625 -1.582031 8 -0.984375 7.40625 -0.515625 C 6.8125 -0.0546875 6.019531 0.171875 5.03125 0.171875 Z M 5.03125 0.171875 "/></g></g><g style="fill:#000000;fill-opacity:1;"><g transform="translate(228.186174, 282.998799)"><path style="stroke:none" d="M 2.328125 -9.65625 C 1.929688 -9.65625 1.609375 -9.769531 1.359375 -10 C 1.117188 -10.238281 1 -10.546875 1 -10.921875 C 1 -11.296875 1.117188 -11.597656 1.359375 -11.828125 C 1.609375 -12.066406 1.929688 -12.1875 2.328125 -12.1875 C 2.585938 -12.1875 2.816406 -12.128906 3.015625 -12.015625 C 3.222656 -11.910156 3.378906 -11.765625 3.484375 -11.578125 C 3.597656 -11.390625 3.65625 -11.171875 3.65625 -10.921875 C 3.65625 -10.679688 3.597656 -10.460938 3.484375 -10.265625 C 3.378906 -10.078125 3.222656 -9.925781 3.015625 -9.8125 C 2.816406 -9.707031 2.585938 -9.65625 2.328125 -9.65625 Z M 1.25 0 L 1.25 -8.625 L 3.40625 -8.625 L 3.40625 0 Z M 1.25 0 "/></g></g><g style="fill:#000000;fill-opacity:1;"><g transform="translate(232.825665, 282.998799)"><path style="stroke:none" d="M 1.25 0 L 1.25 -8.625 L 3.328125 -8.625 L 3.328125 -7.359375 L 3.484375 -7.3125 C 4.023438 -8.289062 4.894531 -8.78125 6.09375 -8.78125 C 7.09375 -8.78125 7.820312 -8.507812 8.28125 -7.96875 C 8.75 -7.425781 8.984375 -6.640625 8.984375 -5.609375 L 8.984375 0 L 6.828125 0 L 6.828125 -5.34375 C 6.828125 -5.914062 6.710938 -6.328125 6.484375 -6.578125 C 6.253906 -6.828125 5.882812 -6.953125 5.375 -6.953125 C 4.757812 -6.953125 4.273438 -6.75 3.921875 -6.34375 C 3.578125 -5.945312 3.40625 -5.320312 3.40625 -4.46875 L 3.40625 0 Z M 1.25 0 "/></g></g><g style="fill:#000000;fill-opacity:1;"><g transform="translate(242.91695, 282.998799)"><path style="stroke:none" d="M 8.515625 -3.828125 L 2.984375 -3.828125 C 3.046875 -3.078125 3.257812 -2.53125 3.625 -2.1875 C 3.988281 -1.84375 4.484375 -1.671875 5.109375 -1.671875 C 5.609375 -1.671875 6.007812 -1.765625 6.3125 -1.953125 C 6.625 -2.140625 6.875 -2.421875 7.0625 -2.796875 L 7.21875 -2.796875 L 8.65625 -1.875 C 8.375 -1.269531 7.945312 -0.773438 7.375 -0.390625 C 6.8125 -0.015625 6.054688 0.171875 5.109375 0.171875 C 4.222656 0.171875 3.453125 0 2.796875 -0.34375 C 2.148438 -0.6875 1.648438 -1.191406 1.296875 -1.859375 C 0.953125 -2.523438 0.78125 -3.34375 0.78125 -4.3125 C 0.78125 -5.289062 0.960938 -6.113281 1.328125 -6.78125 C 1.703125 -7.457031 2.203125 -7.957031 2.828125 -8.28125 C 3.460938 -8.613281 4.171875 -8.78125 4.953125 -8.78125 C 6.171875 -8.78125 7.101562 -8.457031 7.75 -7.8125 C 8.40625 -7.164062 8.734375 -6.21875 8.734375 -4.96875 C 8.734375 -4.519531 8.71875 -4.171875 8.6875 -3.921875 Z M 6.65625 -5.21875 C 6.632812 -5.875 6.484375 -6.351562 6.203125 -6.65625 C 5.921875 -6.957031 5.503906 -7.109375 4.953125 -7.109375 C 3.859375 -7.109375 3.21875 -6.476562 3.03125 -5.21875 Z M 6.65625 -5.21875 "/></g></g></g></svg>