<svg xmlns="http://www.w3.org/2000/svg" xmlns:xlink="http://www.w3.org/1999/xlink" width="500" zoomAndPan="magnify" viewBox="0 0 375 374.999991" height="500" preserveAspectRatio="xMidYMid meet" version="1.2"><defs><clipPath id="62c5cde06f"><path d="M 177 245 L 222 245 L 222 262.5 L 177 262.5 Z M 177 245 "/></clipPath><clipPath id="1450a9df6b"><path d="M 229 234 L 258 234 L 258 262.5 L 229 262.5 Z M 229 234 "/></clipPath><clipPath id="0d3aa926a9"><path d="M 115.78125 112.5 L 205 112.5 L 205 244 L 115.78125 244 Z M 115.78125 112.5 "/></clipPath></defs><g id="e85b131c13"><path style=" stroke:none;fill-rule:nonzero;fill:#000000;fill-opacity:1;" d="M 180.09375 237.890625 L 169.894531 241.9375 L 166.953125 234.503906 L 177.152344 230.457031 C 177.628906 230.269531 178.125 230.175781 178.625 230.175781 C 179.160156 230.175781 179.699219 230.285156 180.207031 230.503906 C 181.1875 230.929688 181.941406 231.710938 182.335938 232.699219 C 183.148438 234.75 182.136719 237.082031 180.09375 237.890625 Z M 155.34375 247.710938 C 154.355469 248.105469 153.265625 248.089844 152.292969 247.664062 C 151.308594 247.238281 150.558594 246.457031 150.164062 245.464844 C 149.769531 244.472656 149.785156 243.386719 150.210938 242.40625 C 150.632812 241.425781 151.414062 240.667969 152.402344 240.277344 L 162.601562 236.230469 L 165.542969 243.664062 Z M 186.6875 230.976562 C 185.835938 228.816406 184.191406 227.125 182.0625 226.203125 C 179.945312 225.289062 177.589844 225.246094 175.425781 226.101562 L 150.679688 235.917969 C 148.523438 236.773438 146.832031 238.414062 145.914062 240.546875 C 144.996094 242.675781 144.957031 245.035156 145.8125 247.191406 C 146.660156 249.347656 148.304688 251.042969 150.433594 251.964844 C 151.535156 252.441406 152.703125 252.683594 153.875 252.683594 C 154.953125 252.683594 156.035156 252.476562 157.070312 252.066406 L 181.816406 242.25 C 186.261719 240.484375 188.449219 235.429688 186.6875 230.976562 "/><path style=" stroke:none;fill-rule:nonzero;fill:#000000;fill-opacity:1;" d="M 219.339844 238.433594 C 217.992188 240.175781 215.476562 240.5 213.734375 239.148438 L 205.058594 232.425781 L 209.941406 226.101562 L 218.621094 232.824219 C 220.363281 234.171875 220.683594 236.691406 219.339844 238.433594 Z M 192.679688 222.839844 C 190.941406 221.488281 190.621094 218.976562 191.96875 217.226562 C 192.617188 216.386719 193.5625 215.84375 194.617188 215.710938 C 194.789062 215.6875 194.960938 215.675781 195.128906 215.675781 C 196.011719 215.675781 196.859375 215.964844 197.566406 216.515625 L 206.242188 223.234375 L 201.355469 229.558594 Z M 221.484375 229.117188 L 210.960938 220.964844 C 210.957031 220.960938 210.957031 220.960938 210.957031 220.960938 C 210.957031 220.960938 210.957031 220.960938 210.953125 220.960938 L 200.429688 212.808594 C 198.601562 211.386719 196.335938 210.761719 194.023438 211.058594 C 191.726562 211.355469 189.679688 212.527344 188.261719 214.363281 C 185.339844 218.152344 186.035156 223.617188 189.816406 226.546875 L 210.867188 242.855469 C 212.445312 244.074219 214.3125 244.667969 216.167969 244.667969 C 218.761719 244.667969 221.332031 243.511719 223.042969 241.300781 C 225.964844 237.511719 225.265625 232.046875 221.484375 229.117188 "/><g clip-rule="nonzero" clip-path="url(#62c5cde06f)"><path style=" stroke:none;fill-rule:nonzero;fill:#000000;fill-opacity:1;" d="M 212.675781 257.8125 L 201.707031 257.8125 L 201.707031 249.816406 L 212.675781 249.816406 C 214.878906 249.816406 216.667969 251.609375 216.667969 253.816406 C 216.667969 256.019531 214.878906 257.8125 212.675781 257.8125 Z M 197.027344 257.8125 L 186.058594 257.8125 C 183.855469 257.8125 182.0625 256.019531 182.0625 253.816406 C 182.0625 251.609375 183.855469 249.816406 186.058594 249.816406 L 197.027344 249.816406 Z M 212.675781 245.128906 L 186.058594 245.128906 C 181.277344 245.128906 177.382812 249.023438 177.382812 253.816406 C 177.382812 258.605469 181.277344 262.5 186.058594 262.5 L 212.675781 262.5 C 217.460938 262.5 221.351562 258.605469 221.351562 253.816406 C 221.351562 249.023438 217.460938 245.128906 212.675781 245.128906 "/></g><g clip-rule="nonzero" clip-path="url(#1450a9df6b)"><path style=" stroke:none;fill-rule:nonzero;fill:#000000;fill-opacity:1;" d="M 249.503906 255.511719 C 247.652344 257.140625 245.265625 257.972656 242.820312 257.792969 C 241.160156 257.6875 239.617188 257.117188 238.277344 256.210938 L 251.636719 244.449219 C 253.460938 248.113281 252.71875 252.683594 249.503906 255.511719 Z M 234.195312 247.976562 C 234.355469 245.511719 235.460938 243.257812 237.316406 241.628906 C 239.066406 240.085938 241.238281 239.328125 243.40625 239.328125 C 245.214844 239.328125 247.003906 239.886719 248.546875 240.925781 L 235.1875 252.6875 C 234.457031 251.242188 234.09375 249.636719 234.195312 247.976562 Z M 253.859375 239.371094 C 248.792969 233.601562 239.980469 233.039062 234.222656 238.105469 C 231.433594 240.5625 229.765625 243.960938 229.527344 247.675781 C 229.289062 251.390625 230.507812 254.972656 232.960938 257.765625 C 235.417969 260.5625 238.808594 262.234375 242.515625 262.472656 C 242.820312 262.492188 243.125 262.5 243.429688 262.5 C 246.808594 262.5 250.035156 261.285156 252.597656 259.03125 C 258.355469 253.960938 258.925781 245.140625 253.859375 239.371094 "/></g><path style=" stroke:none;fill-rule:nonzero;fill:#000000;fill-opacity:1;" d="M 226.128906 220.636719 L 243.816406 218.738281 C 243.574219 220.339844 242.949219 221.863281 241.90625 223.160156 C 240.359375 225.082031 238.15625 226.285156 235.707031 226.546875 C 233.25 226.804688 230.84375 226.101562 228.925781 224.554688 C 227.632812 223.511719 226.703125 222.152344 226.128906 220.636719 Z M 225.628906 215.980469 C 225.867188 214.375 226.492188 212.851562 227.535156 211.554688 C 229.082031 209.632812 231.285156 208.429688 233.738281 208.164062 C 234.070312 208.132812 234.398438 208.113281 234.726562 208.113281 C 238.582031 208.113281 241.96875 210.554688 243.3125 214.078125 Z M 236.207031 231.207031 C 239.898438 230.8125 243.222656 228.996094 245.554688 226.101562 C 247.882812 223.203125 248.949219 219.570312 248.554688 215.871094 C 247.734375 208.234375 240.835938 202.703125 233.238281 203.507812 C 229.542969 203.902344 226.222656 205.71875 223.890625 208.617188 C 221.558594 211.511719 220.492188 215.144531 220.886719 218.84375 C 220.886719 218.84375 220.886719 218.847656 220.886719 218.847656 C 221.285156 222.546875 223.09375 225.871094 225.988281 228.203125 C 228.484375 230.21875 231.53125 231.289062 234.691406 231.289062 C 235.195312 231.289062 235.699219 231.261719 236.207031 231.207031 "/><path style=" stroke:none;fill-rule:nonzero;fill:#000000;fill-opacity:1;" d="M 189 243.015625 C 192.179688 243.015625 195.21875 242.035156 197.792969 240.179688 C 198.84375 239.425781 199.078125 237.960938 198.324219 236.90625 C 197.570312 235.863281 196.117188 235.617188 195.058594 236.375 C 193.285156 237.652344 191.191406 238.328125 189 238.328125 C 187.707031 238.328125 186.65625 239.378906 186.65625 240.671875 C 186.65625 241.96875 187.707031 243.015625 189 243.015625 "/><g clip-rule="nonzero" clip-path="url(#0d3aa926a9)"><path style=" stroke:none;fill-rule:nonzero;fill:#000000;fill-opacity:1;" d="M 130.183594 127.519531 L 130.183594 117.1875 L 189.757812 117.1875 L 189.757812 127.519531 L 174.320312 127.519531 C 173.027344 127.519531 171.980469 128.570312 171.980469 129.863281 C 171.980469 131.160156 173.027344 132.207031 174.320312 132.207031 L 175.886719 132.207031 L 175.886719 139.707031 L 144.058594 139.707031 L 144.058594 132.207031 L 166.46875 132.207031 C 167.761719 132.207031 168.808594 131.160156 168.808594 129.863281 C 168.808594 128.570312 167.761719 127.519531 166.46875 127.519531 Z M 140.363281 238.328125 L 130.945312 238.328125 C 125.222656 238.328125 120.5625 233.667969 120.5625 227.933594 L 120.5625 222.175781 L 181.910156 222.175781 C 183.203125 222.175781 184.25 221.125 184.25 219.832031 C 184.25 218.535156 183.203125 217.488281 181.910156 217.488281 L 120.5625 217.488281 L 120.5625 169.960938 L 131.039062 169.960938 C 132.332031 169.960938 133.378906 168.910156 133.378906 167.617188 C 133.378906 166.324219 132.332031 165.273438 131.039062 165.273438 L 120.5625 165.273438 L 120.5625 154.789062 C 120.5625 149.058594 125.222656 144.394531 130.945312 144.394531 L 189 144.394531 C 194.722656 144.394531 199.378906 149.058594 199.378906 154.789062 L 199.378906 165.273438 L 139.070312 165.273438 C 137.777344 165.273438 136.730469 166.324219 136.730469 167.617188 C 136.730469 168.910156 137.777344 169.960938 139.070312 169.960938 L 199.378906 169.960938 L 199.378906 207.253906 C 199.378906 208.546875 200.425781 209.597656 201.71875 209.597656 C 203.011719 209.597656 204.0625 208.546875 204.0625 207.253906 L 204.0625 154.789062 C 204.0625 146.472656 197.304688 139.707031 189 139.707031 L 180.566406 139.707031 L 180.566406 132.207031 L 192.097656 132.207031 C 193.390625 132.207031 194.4375 131.160156 194.4375 129.863281 L 194.4375 114.84375 C 194.4375 113.550781 193.390625 112.5 192.097656 112.5 L 127.84375 112.5 C 126.554688 112.5 125.503906 113.550781 125.503906 114.84375 L 125.503906 129.863281 C 125.503906 131.160156 126.554688 132.207031 127.84375 132.207031 L 139.375 132.207031 L 139.375 139.707031 L 130.945312 139.707031 C 122.640625 139.707031 115.882812 146.472656 115.882812 154.789062 L 115.882812 227.933594 C 115.882812 236.25 122.640625 243.015625 130.945312 243.015625 L 140.363281 243.015625 C 141.65625 243.015625 142.707031 241.96875 142.707031 240.671875 C 142.707031 239.378906 141.65625 238.328125 140.363281 238.328125 "/></g><path style=" stroke:none;fill-rule:nonzero;fill:#000000;fill-opacity:1;" d="M 148.097656 197.074219 L 148.097656 190.246094 L 154.222656 190.246094 C 155.515625 190.246094 156.566406 189.199219 156.566406 187.902344 L 156.566406 181.769531 L 163.378906 181.769531 L 163.378906 187.902344 C 163.378906 189.199219 164.429688 190.246094 165.71875 190.246094 L 171.84375 190.246094 L 171.84375 197.074219 L 165.71875 197.074219 C 164.429688 197.074219 163.378906 198.121094 163.378906 199.417969 L 163.378906 205.550781 L 156.566406 205.550781 L 156.566406 199.417969 C 156.566406 198.121094 155.515625 197.074219 154.222656 197.074219 Z M 154.222656 210.238281 L 165.71875 210.238281 C 167.011719 210.238281 168.058594 209.1875 168.058594 207.894531 L 168.058594 201.761719 L 174.1875 201.761719 C 175.480469 201.761719 176.527344 200.710938 176.527344 199.417969 L 176.527344 187.902344 C 176.527344 186.609375 175.480469 185.558594 174.1875 185.558594 L 168.058594 185.558594 L 168.058594 179.425781 C 168.058594 178.132812 167.011719 177.082031 165.71875 177.082031 L 154.222656 177.082031 C 152.929688 177.082031 151.882812 178.132812 151.882812 179.425781 L 151.882812 185.558594 L 145.757812 185.558594 C 144.464844 185.558594 143.414062 186.609375 143.414062 187.902344 L 143.414062 199.417969 C 143.414062 200.710938 144.464844 201.761719 145.757812 201.761719 L 151.882812 201.761719 L 151.882812 207.894531 C 151.882812 209.1875 152.929688 210.238281 154.222656 210.238281 "/><g style="fill:#000000;fill-opacity:1;"><g transform="translate(80.999274, 287.855489)"><path style="stroke:none" d="M 6.265625 0 L 4 0 L 4 -4.484375 L 0.0625 -11.421875 L 2.484375 -11.421875 L 5.09375 -6.9375 L 5.28125 -6.9375 L 7.84375 -11.421875 L 10.203125 -11.421875 L 6.265625 -4.484375 Z M 6.265625 0 "/></g></g><g style="fill:#000000;fill-opacity:1;"><g transform="translate(90.145392, 287.855489)"><path style="stroke:none" d="M 5.015625 0.171875 C 4.171875 0.171875 3.425781 0 2.78125 -0.34375 C 2.144531 -0.695312 1.648438 -1.207031 1.296875 -1.875 C 0.953125 -2.550781 0.78125 -3.363281 0.78125 -4.3125 C 0.78125 -5.257812 0.953125 -6.066406 1.296875 -6.734375 C 1.648438 -7.410156 2.144531 -7.921875 2.78125 -8.265625 C 3.425781 -8.609375 4.171875 -8.78125 5.015625 -8.78125 C 5.859375 -8.78125 6.597656 -8.609375 7.234375 -8.265625 C 7.867188 -7.921875 8.363281 -7.410156 8.71875 -6.734375 C 9.070312 -6.066406 9.25 -5.257812 9.25 -4.3125 C 9.25 -3.363281 9.070312 -2.550781 8.71875 -1.875 C 8.363281 -1.207031 7.867188 -0.695312 7.234375 -0.34375 C 6.597656 0 5.859375 0.171875 5.015625 0.171875 Z M 5.015625 -1.671875 C 6.347656 -1.671875 7.015625 -2.550781 7.015625 -4.3125 C 7.015625 -5.21875 6.84375 -5.882812 6.5 -6.3125 C 6.15625 -6.738281 5.660156 -6.953125 5.015625 -6.953125 C 3.671875 -6.953125 3 -6.070312 3 -4.3125 C 3 -2.550781 3.671875 -1.671875 5.015625 -1.671875 Z M 5.015625 -1.671875 "/></g></g><g style="fill:#000000;fill-opacity:1;"><g transform="translate(100.158571, 287.855489)"><path style="stroke:none" d="M 3.953125 0.171875 C 2.984375 0.171875 2.265625 -0.09375 1.796875 -0.625 C 1.335938 -1.15625 1.109375 -1.914062 1.109375 -2.90625 L 1.109375 -8.625 L 3.28125 -8.625 L 3.28125 -3.1875 C 3.28125 -2.65625 3.390625 -2.269531 3.609375 -2.03125 C 3.835938 -1.789062 4.191406 -1.671875 4.671875 -1.671875 C 5.265625 -1.671875 5.726562 -1.863281 6.0625 -2.25 C 6.394531 -2.644531 6.5625 -3.265625 6.5625 -4.109375 L 6.5625 -8.625 L 8.734375 -8.625 L 8.734375 0 L 6.65625 0 L 6.65625 -1.265625 L 6.484375 -1.3125 C 6.210938 -0.8125 5.875 -0.4375 5.46875 -0.1875 C 5.070312 0.0507812 4.566406 0.171875 3.953125 0.171875 Z M 3.953125 0.171875 "/></g></g><g style="fill:#000000;fill-opacity:1;"><g transform="translate(110.124887, 287.855489)"><path style="stroke:none" d="M 1.25 0 L 1.25 -8.625 L 3.34375 -8.625 L 3.34375 -7.34375 L 3.515625 -7.3125 C 3.722656 -7.789062 3.992188 -8.140625 4.328125 -8.359375 C 4.671875 -8.585938 5.082031 -8.703125 5.5625 -8.703125 C 6.050781 -8.703125 6.425781 -8.617188 6.6875 -8.453125 L 6.3125 -6.578125 L 6.15625 -6.546875 C 6.007812 -6.609375 5.867188 -6.648438 5.734375 -6.671875 C 5.609375 -6.703125 5.453125 -6.71875 5.265625 -6.71875 C 4.660156 -6.71875 4.195312 -6.503906 3.875 -6.078125 C 3.5625 -5.648438 3.40625 -4.96875 3.40625 -4.03125 L 3.40625 0 Z M 1.25 0 "/></g></g><g style="fill:#000000;fill-opacity:1;"><g transform="translate(116.881055, 287.855489)"><path style="stroke:none" d=""/></g></g><g style="fill:#000000;fill-opacity:1;"><g transform="translate(120.653576, 287.855489)"><path style="stroke:none" d="M 3.5625 0 L 1.484375 0 L 1.484375 -11.421875 L 4.4375 -11.421875 L 7.328125 -3.03125 L 7.5 -3.03125 L 10.375 -11.421875 L 13.25 -11.421875 L 13.25 0 L 11.109375 0 L 11.109375 -7.546875 L 10.921875 -7.578125 L 8.28125 0 L 6.390625 0 L 3.75 -7.578125 L 3.5625 -7.546875 Z M 3.5625 0 "/></g></g><g style="fill:#000000;fill-opacity:1;"><g transform="translate(135.39217, 287.855489)"><path style="stroke:none" d="M 8.515625 -3.828125 L 2.984375 -3.828125 C 3.046875 -3.078125 3.257812 -2.53125 3.625 -2.1875 C 3.988281 -1.84375 4.484375 -1.671875 5.109375 -1.671875 C 5.609375 -1.671875 6.007812 -1.765625 6.3125 -1.953125 C 6.625 -2.140625 6.875 -2.421875 7.0625 -2.796875 L 7.21875 -2.796875 L 8.65625 -1.875 C 8.375 -1.269531 7.945312 -0.773438 7.375 -0.390625 C 6.8125 -0.015625 6.054688 0.171875 5.109375 0.171875 C 4.222656 0.171875 3.453125 0 2.796875 -0.34375 C 2.148438 -0.6875 1.648438 -1.191406 1.296875 -1.859375 C 0.953125 -2.523438 0.78125 -3.34375 0.78125 -4.3125 C 0.78125 -5.289062 0.960938 -6.113281 1.328125 -6.78125 C 1.703125 -7.457031 2.203125 -7.957031 2.828125 -8.28125 C 3.460938 -8.613281 4.171875 -8.78125 4.953125 -8.78125 C 6.171875 -8.78125 7.101562 -8.457031 7.75 -7.8125 C 8.40625 -7.164062 8.734375 -6.21875 8.734375 -4.96875 C 8.734375 -4.519531 8.71875 -4.171875 8.6875 -3.921875 Z M 6.65625 -5.21875 C 6.632812 -5.875 6.484375 -6.351562 6.203125 -6.65625 C 5.921875 -6.957031 5.503906 -7.109375 4.953125 -7.109375 C 3.859375 -7.109375 3.21875 -6.476562 3.03125 -5.21875 Z M 6.65625 -5.21875 "/></g></g><g style="fill:#000000;fill-opacity:1;"><g transform="translate(144.757075, 287.855489)"><path style="stroke:none" d="M 4.265625 0.171875 C 3.578125 0.171875 2.972656 0.00390625 2.453125 -0.328125 C 1.929688 -0.660156 1.519531 -1.160156 1.21875 -1.828125 C 0.925781 -2.503906 0.78125 -3.332031 0.78125 -4.3125 C 0.78125 -5.289062 0.929688 -6.113281 1.234375 -6.78125 C 1.535156 -7.457031 1.957031 -7.957031 2.5 -8.28125 C 3.039062 -8.613281 3.664062 -8.78125 4.375 -8.78125 C 4.90625 -8.78125 5.367188 -8.6875 5.765625 -8.5 C 6.160156 -8.320312 6.492188 -8.035156 6.765625 -7.640625 L 6.921875 -7.6875 L 6.921875 -12.078125 L 9.09375 -12.078125 L 9.09375 0 L 6.921875 0 L 6.921875 -1.125 L 6.765625 -1.15625 C 6.523438 -0.75 6.195312 -0.425781 5.78125 -0.1875 C 5.363281 0.0507812 4.859375 0.171875 4.265625 0.171875 Z M 4.96875 -1.671875 C 5.570312 -1.671875 6.050781 -1.890625 6.40625 -2.328125 C 6.757812 -2.765625 6.9375 -3.425781 6.9375 -4.3125 C 6.9375 -5.195312 6.757812 -5.859375 6.40625 -6.296875 C 6.050781 -6.734375 5.570312 -6.953125 4.96875 -6.953125 C 4.332031 -6.953125 3.84375 -6.738281 3.5 -6.3125 C 3.164062 -5.882812 3 -5.21875 3 -4.3125 C 3 -3.40625 3.164062 -2.738281 3.5 -2.3125 C 3.84375 -1.882812 4.332031 -1.671875 4.96875 -1.671875 Z M 4.96875 -1.671875 "/></g></g><g style="fill:#000000;fill-opacity:1;"><g transform="translate(155.082678, 287.855489)"><path style="stroke:none" d="M 2.328125 -9.65625 C 1.929688 -9.65625 1.609375 -9.769531 1.359375 -10 C 1.117188 -10.238281 1 -10.546875 1 -10.921875 C 1 -11.296875 1.117188 -11.597656 1.359375 -11.828125 C 1.609375 -12.066406 1.929688 -12.1875 2.328125 -12.1875 C 2.585938 -12.1875 2.816406 -12.128906 3.015625 -12.015625 C 3.222656 -11.910156 3.378906 -11.765625 3.484375 -11.578125 C 3.597656 -11.390625 3.65625 -11.171875 3.65625 -10.921875 C 3.65625 -10.679688 3.597656 -10.460938 3.484375 -10.265625 C 3.378906 -10.078125 3.222656 -9.925781 3.015625 -9.8125 C 2.816406 -9.707031 2.585938 -9.65625 2.328125 -9.65625 Z M 1.25 0 L 1.25 -8.625 L 3.40625 -8.625 L 3.40625 0 Z M 1.25 0 "/></g></g><g style="fill:#000000;fill-opacity:1;"><g transform="translate(159.72217, 287.855489)"><path style="stroke:none" d="M 5.03125 0.171875 C 4.195312 0.171875 3.457031 0 2.8125 -0.34375 C 2.175781 -0.695312 1.675781 -1.207031 1.3125 -1.875 C 0.957031 -2.550781 0.78125 -3.363281 0.78125 -4.3125 C 0.78125 -5.257812 0.957031 -6.066406 1.3125 -6.734375 C 1.675781 -7.410156 2.175781 -7.921875 2.8125 -8.265625 C 3.445312 -8.609375 4.171875 -8.78125 4.984375 -8.78125 C 6.804688 -8.78125 7.972656 -8.125 8.484375 -6.8125 L 7 -5.75 L 6.828125 -5.75 C 6.648438 -6.15625 6.421875 -6.457031 6.140625 -6.65625 C 5.859375 -6.851562 5.472656 -6.953125 4.984375 -6.953125 C 4.359375 -6.953125 3.867188 -6.734375 3.515625 -6.296875 C 3.171875 -5.867188 3 -5.207031 3 -4.3125 C 3 -3.425781 3.175781 -2.765625 3.53125 -2.328125 C 3.882812 -1.890625 4.382812 -1.671875 5.03125 -1.671875 C 5.5 -1.671875 5.894531 -1.796875 6.21875 -2.046875 C 6.539062 -2.304688 6.773438 -2.671875 6.921875 -3.140625 L 7.078125 -3.15625 L 8.625 -2.3125 C 8.40625 -1.582031 8 -0.984375 7.40625 -0.515625 C 6.8125 -0.0546875 6.019531 0.171875 5.03125 0.171875 Z M 5.03125 0.171875 "/></g></g><g style="fill:#000000;fill-opacity:1;"><g transform="translate(168.602819, 287.855489)"><path style="stroke:none" d="M 2.328125 -9.65625 C 1.929688 -9.65625 1.609375 -9.769531 1.359375 -10 C 1.117188 -10.238281 1 -10.546875 1 -10.921875 C 1 -11.296875 1.117188 -11.597656 1.359375 -11.828125 C 1.609375 -12.066406 1.929688 -12.1875 2.328125 -12.1875 C 2.585938 -12.1875 2.816406 -12.128906 3.015625 -12.015625 C 3.222656 -11.910156 3.378906 -11.765625 3.484375 -11.578125 C 3.597656 -11.390625 3.65625 -11.171875 3.65625 -10.921875 C 3.65625 -10.679688 3.597656 -10.460938 3.484375 -10.265625 C 3.378906 -10.078125 3.222656 -9.925781 3.015625 -9.8125 C 2.816406 -9.707031 2.585938 -9.65625 2.328125 -9.65625 Z M 1.25 0 L 1.25 -8.625 L 3.40625 -8.625 L 3.40625 0 Z M 1.25 0 "/></g></g><g style="fill:#000000;fill-opacity:1;"><g transform="translate(173.24231, 287.855489)"><path style="stroke:none" d="M 1.25 0 L 1.25 -8.625 L 3.328125 -8.625 L 3.328125 -7.359375 L 3.484375 -7.3125 C 4.023438 -8.289062 4.894531 -8.78125 6.09375 -8.78125 C 7.09375 -8.78125 7.820312 -8.507812 8.28125 -7.96875 C 8.75 -7.425781 8.984375 -6.640625 8.984375 -5.609375 L 8.984375 0 L 6.828125 0 L 6.828125 -5.34375 C 6.828125 -5.914062 6.710938 -6.328125 6.484375 -6.578125 C 6.253906 -6.828125 5.882812 -6.953125 5.375 -6.953125 C 4.757812 -6.953125 4.273438 -6.75 3.921875 -6.34375 C 3.578125 -5.945312 3.40625 -5.320312 3.40625 -4.46875 L 3.40625 0 Z M 1.25 0 "/></g></g><g style="fill:#000000;fill-opacity:1;"><g transform="translate(183.333596, 287.855489)"><path style="stroke:none" d="M 8.515625 -3.828125 L 2.984375 -3.828125 C 3.046875 -3.078125 3.257812 -2.53125 3.625 -2.1875 C 3.988281 -1.84375 4.484375 -1.671875 5.109375 -1.671875 C 5.609375 -1.671875 6.007812 -1.765625 6.3125 -1.953125 C 6.625 -2.140625 6.875 -2.421875 7.0625 -2.796875 L 7.21875 -2.796875 L 8.65625 -1.875 C 8.375 -1.269531 7.945312 -0.773438 7.375 -0.390625 C 6.8125 -0.015625 6.054688 0.171875 5.109375 0.171875 C 4.222656 0.171875 3.453125 0 2.796875 -0.34375 C 2.148438 -0.6875 1.648438 -1.191406 1.296875 -1.859375 C 0.953125 -2.523438 0.78125 -3.34375 0.78125 -4.3125 C 0.78125 -5.289062 0.960938 -6.113281 1.328125 -6.78125 C 1.703125 -7.457031 2.203125 -7.957031 2.828125 -8.28125 C 3.460938 -8.613281 4.171875 -8.78125 4.953125 -8.78125 C 6.171875 -8.78125 7.101562 -8.457031 7.75 -7.8125 C 8.40625 -7.164062 8.734375 -6.21875 8.734375 -4.96875 C 8.734375 -4.519531 8.71875 -4.171875 8.6875 -3.921875 Z M 6.65625 -5.21875 C 6.632812 -5.875 6.484375 -6.351562 6.203125 -6.65625 C 5.921875 -6.957031 5.503906 -7.109375 4.953125 -7.109375 C 3.859375 -7.109375 3.21875 -6.476562 3.03125 -5.21875 Z M 6.65625 -5.21875 "/></g></g><g style="fill:#000000;fill-opacity:1;"><g transform="translate(192.698501, 287.855489)"><path style="stroke:none" d=""/></g></g><g style="fill:#000000;fill-opacity:1;"><g transform="translate(196.471023, 287.855489)"><path style="stroke:none" d="M 5.59375 -11.421875 C 7.445312 -11.421875 8.863281 -10.941406 9.84375 -9.984375 C 10.820312 -9.023438 11.3125 -7.601562 11.3125 -5.71875 C 11.3125 -3.832031 10.820312 -2.40625 9.84375 -1.4375 C 8.863281 -0.476562 7.445312 0 5.59375 0 L 1.484375 0 L 1.484375 -11.421875 Z M 5.46875 -1.90625 C 6.644531 -1.90625 7.523438 -2.203125 8.109375 -2.796875 C 8.691406 -3.398438 8.984375 -4.375 8.984375 -5.71875 C 8.984375 -7.050781 8.691406 -8.019531 8.109375 -8.625 C 7.523438 -9.226562 6.644531 -9.53125 5.46875 -9.53125 L 3.75 -9.53125 L 3.75 -1.90625 Z M 5.46875 -1.90625 "/></g></g><g style="fill:#000000;fill-opacity:1;"><g transform="translate(208.678984, 287.855489)"><path style="stroke:none" d="M 2.328125 -9.65625 C 1.929688 -9.65625 1.609375 -9.769531 1.359375 -10 C 1.117188 -10.238281 1 -10.546875 1 -10.921875 C 1 -11.296875 1.117188 -11.597656 1.359375 -11.828125 C 1.609375 -12.066406 1.929688 -12.1875 2.328125 -12.1875 C 2.585938 -12.1875 2.816406 -12.128906 3.015625 -12.015625 C 3.222656 -11.910156 3.378906 -11.765625 3.484375 -11.578125 C 3.597656 -11.390625 3.65625 -11.171875 3.65625 -10.921875 C 3.65625 -10.679688 3.597656 -10.460938 3.484375 -10.265625 C 3.378906 -10.078125 3.222656 -9.925781 3.015625 -9.8125 C 2.816406 -9.707031 2.585938 -9.65625 2.328125 -9.65625 Z M 1.25 0 L 1.25 -8.625 L 3.40625 -8.625 L 3.40625 0 Z M 1.25 0 "/></g></g><g style="fill:#000000;fill-opacity:1;"><g transform="translate(213.318476, 287.855489)"><path style="stroke:none" d="M 4.03125 0.171875 C 3.445312 0.171875 2.910156 0.101562 2.421875 -0.03125 C 1.929688 -0.175781 1.507812 -0.367188 1.15625 -0.609375 C 0.8125 -0.859375 0.554688 -1.140625 0.390625 -1.453125 L 1.59375 -2.75 L 1.765625 -2.75 C 2.046875 -2.363281 2.378906 -2.070312 2.765625 -1.875 C 3.160156 -1.6875 3.585938 -1.59375 4.046875 -1.59375 C 4.472656 -1.59375 4.789062 -1.664062 5 -1.8125 C 5.21875 -1.96875 5.328125 -2.1875 5.328125 -2.46875 C 5.328125 -2.6875 5.25 -2.867188 5.09375 -3.015625 C 4.9375 -3.160156 4.6875 -3.273438 4.34375 -3.359375 L 3.203125 -3.640625 C 2.347656 -3.835938 1.722656 -4.144531 1.328125 -4.5625 C 0.941406 -4.988281 0.75 -5.523438 0.75 -6.171875 C 0.75 -6.703125 0.882812 -7.164062 1.15625 -7.5625 C 1.425781 -7.957031 1.8125 -8.257812 2.3125 -8.46875 C 2.8125 -8.675781 3.390625 -8.78125 4.046875 -8.78125 C 4.828125 -8.78125 5.472656 -8.664062 5.984375 -8.4375 C 6.492188 -8.21875 6.890625 -7.921875 7.171875 -7.546875 L 6.015625 -6.296875 L 5.859375 -6.296875 C 5.617188 -6.566406 5.347656 -6.765625 5.046875 -6.890625 C 4.753906 -7.015625 4.421875 -7.078125 4.046875 -7.078125 C 3.191406 -7.078125 2.765625 -6.8125 2.765625 -6.28125 C 2.765625 -6.0625 2.84375 -5.878906 3 -5.734375 C 3.164062 -5.597656 3.445312 -5.484375 3.84375 -5.390625 L 4.90625 -5.15625 C 5.78125 -4.96875 6.421875 -4.664062 6.828125 -4.25 C 7.234375 -3.84375 7.4375 -3.289062 7.4375 -2.59375 C 7.4375 -2.039062 7.300781 -1.554688 7.03125 -1.140625 C 6.757812 -0.722656 6.367188 -0.398438 5.859375 -0.171875 C 5.347656 0.0546875 4.738281 0.171875 4.03125 0.171875 Z M 4.03125 0.171875 "/></g></g><g style="fill:#000000;fill-opacity:1;"><g transform="translate(221.261854, 287.855489)"><path style="stroke:none" d="M 5.03125 0.171875 C 4.195312 0.171875 3.457031 0 2.8125 -0.34375 C 2.175781 -0.695312 1.675781 -1.207031 1.3125 -1.875 C 0.957031 -2.550781 0.78125 -3.363281 0.78125 -4.3125 C 0.78125 -5.257812 0.957031 -6.066406 1.3125 -6.734375 C 1.675781 -7.410156 2.175781 -7.921875 2.8125 -8.265625 C 3.445312 -8.609375 4.171875 -8.78125 4.984375 -8.78125 C 6.804688 -8.78125 7.972656 -8.125 8.484375 -6.8125 L 7 -5.75 L 6.828125 -5.75 C 6.648438 -6.15625 6.421875 -6.457031 6.140625 -6.65625 C 5.859375 -6.851562 5.472656 -6.953125 4.984375 -6.953125 C 4.359375 -6.953125 3.867188 -6.734375 3.515625 -6.296875 C 3.171875 -5.867188 3 -5.207031 3 -4.3125 C 3 -3.425781 3.175781 -2.765625 3.53125 -2.328125 C 3.882812 -1.890625 4.382812 -1.671875 5.03125 -1.671875 C 5.5 -1.671875 5.894531 -1.796875 6.21875 -2.046875 C 6.539062 -2.304688 6.773438 -2.671875 6.921875 -3.140625 L 7.078125 -3.15625 L 8.625 -2.3125 C 8.40625 -1.582031 8 -0.984375 7.40625 -0.515625 C 6.8125 -0.0546875 6.019531 0.171875 5.03125 0.171875 Z M 5.03125 0.171875 "/></g></g><g style="fill:#000000;fill-opacity:1;"><g transform="translate(230.142503, 287.855489)"><path style="stroke:none" d="M 5.015625 0.171875 C 4.171875 0.171875 3.425781 0 2.78125 -0.34375 C 2.144531 -0.695312 1.648438 -1.207031 1.296875 -1.875 C 0.953125 -2.550781 0.78125 -3.363281 0.78125 -4.3125 C 0.78125 -5.257812 0.953125 -6.066406 1.296875 -6.734375 C 1.648438 -7.410156 2.144531 -7.921875 2.78125 -8.265625 C 3.425781 -8.609375 4.171875 -8.78125 5.015625 -8.78125 C 5.859375 -8.78125 6.597656 -8.609375 7.234375 -8.265625 C 7.867188 -7.921875 8.363281 -7.410156 8.71875 -6.734375 C 9.070312 -6.066406 9.25 -5.257812 9.25 -4.3125 C 9.25 -3.363281 9.070312 -2.550781 8.71875 -1.875 C 8.363281 -1.207031 7.867188 -0.695312 7.234375 -0.34375 C 6.597656 0 5.859375 0.171875 5.015625 0.171875 Z M 5.015625 -1.671875 C 6.347656 -1.671875 7.015625 -2.550781 7.015625 -4.3125 C 7.015625 -5.21875 6.84375 -5.882812 6.5 -6.3125 C 6.15625 -6.738281 5.660156 -6.953125 5.015625 -6.953125 C 3.671875 -6.953125 3 -6.070312 3 -4.3125 C 3 -2.550781 3.671875 -1.671875 5.015625 -1.671875 Z M 5.015625 -1.671875 "/></g></g><g style="fill:#000000;fill-opacity:1;"><g transform="translate(239.991642, 287.855489)"><path style="stroke:none" d="M 5.9375 0 L 3.359375 0 L 0.171875 -8.625 L 2.4375 -8.625 L 4.578125 -2.484375 L 4.75 -2.484375 L 6.90625 -8.625 L 9.109375 -8.625 Z M 5.9375 0 "/></g></g><g style="fill:#000000;fill-opacity:1;"><g transform="translate(249.090965, 287.855489)"><path style="stroke:none" d="M 8.515625 -3.828125 L 2.984375 -3.828125 C 3.046875 -3.078125 3.257812 -2.53125 3.625 -2.1875 C 3.988281 -1.84375 4.484375 -1.671875 5.109375 -1.671875 C 5.609375 -1.671875 6.007812 -1.765625 6.3125 -1.953125 C 6.625 -2.140625 6.875 -2.421875 7.0625 -2.796875 L 7.21875 -2.796875 L 8.65625 -1.875 C 8.375 -1.269531 7.945312 -0.773438 7.375 -0.390625 C 6.8125 -0.015625 6.054688 0.171875 5.109375 0.171875 C 4.222656 0.171875 3.453125 0 2.796875 -0.34375 C 2.148438 -0.6875 1.648438 -1.191406 1.296875 -1.859375 C 0.953125 -2.523438 0.78125 -3.34375 0.78125 -4.3125 C 0.78125 -5.289062 0.960938 -6.113281 1.328125 -6.78125 C 1.703125 -7.457031 2.203125 -7.957031 2.828125 -8.28125 C 3.460938 -8.613281 4.171875 -8.78125 4.953125 -8.78125 C 6.171875 -8.78125 7.101562 -8.457031 7.75 -7.8125 C 8.40625 -7.164062 8.734375 -6.21875 8.734375 -4.96875 C 8.734375 -4.519531 8.71875 -4.171875 8.6875 -3.921875 Z M 6.65625 -5.21875 C 6.632812 -5.875 6.484375 -6.351562 6.203125 -6.65625 C 5.921875 -6.957031 5.503906 -7.109375 4.953125 -7.109375 C 3.859375 -7.109375 3.21875 -6.476562 3.03125 -5.21875 Z M 6.65625 -5.21875 "/></g></g><g style="fill:#000000;fill-opacity:1;"><g transform="translate(258.455871, 287.855489)"><path style="stroke:none" d="M 1.25 0 L 1.25 -8.625 L 3.34375 -8.625 L 3.34375 -7.34375 L 3.515625 -7.3125 C 3.722656 -7.789062 3.992188 -8.140625 4.328125 -8.359375 C 4.671875 -8.585938 5.082031 -8.703125 5.5625 -8.703125 C 6.050781 -8.703125 6.425781 -8.617188 6.6875 -8.453125 L 6.3125 -6.578125 L 6.15625 -6.546875 C 6.007812 -6.609375 5.867188 -6.648438 5.734375 -6.671875 C 5.609375 -6.703125 5.453125 -6.71875 5.265625 -6.71875 C 4.660156 -6.71875 4.195312 -6.503906 3.875 -6.078125 C 3.5625 -5.648438 3.40625 -4.96875 3.40625 -4.03125 L 3.40625 0 Z M 1.25 0 "/></g></g><g style="fill:#000000;fill-opacity:1;"><g transform="translate(265.321398, 287.855489)"><path style="stroke:none" d="M 1.90625 3.65625 C 1.539062 3.65625 1.207031 3.625 0.90625 3.5625 C 0.601562 3.507812 0.359375 3.4375 0.171875 3.34375 L 0.515625 1.59375 L 0.65625 1.546875 C 0.789062 1.617188 0.953125 1.675781 1.140625 1.71875 C 1.335938 1.757812 1.535156 1.78125 1.734375 1.78125 C 2.085938 1.78125 2.378906 1.734375 2.609375 1.640625 C 2.835938 1.546875 3.03125 1.394531 3.1875 1.1875 C 3.351562 0.976562 3.5 0.6875 3.625 0.3125 L 0.1875 -8.625 L 2.453125 -8.625 L 4.59375 -2.625 L 4.78125 -2.625 L 6.875 -8.625 L 9.078125 -8.625 L 5.609375 0.546875 C 5.335938 1.285156 5.035156 1.878906 4.703125 2.328125 C 4.367188 2.773438 3.976562 3.109375 3.53125 3.328125 C 3.082031 3.546875 2.539062 3.65625 1.90625 3.65625 Z M 1.90625 3.65625 "/></g></g><g style="fill:#000000;fill-opacity:1;"><g transform="translate(274.569574, 287.855489)"><path style="stroke:none" d=""/></g></g></g></svg>